<svg xmlns="http://www.w3.org/2000/svg" width="18" height="40" fill="none"><path fill="#E4E4E4" d="M8 5.2a7.5 7.5 0 0 1 4.8 1.5 103.2 103.2 0 0 0 1.4.6c.2 0 .4-.2.5-.5.1-.3.3-.7.3-1.3h1a69.3 69.3 0 0 1-.2 4.1v4h-1c0-1.2-.3-2.4-.8-3.6a7 7 0 0 0-2.1-2.9C10.9 6.4 9.8 6 8.3 6a5 5 0 0 0-3.5 1.3c-1 .8-1.4 2-1.4 3.3 0 1 .2 1.7.5 2.4.4.7.9 1.3 1.5 1.8.6.6 1.4 1 2.2 1.6a234.1 234.1 0 0 1 6.2 4.1c1 .8 2 1.8 2.6 2.8.6 1 1 2.2 1 3.7 0 1.7-.5 3-1.2 4.2-.8 1.1-1.8 2-3.1 2.5-1.3.6-2.7.9-4.3.9A9.5 9.5 0 0 1 3.4 33l-.8-.5H2c-.3 0-.5 0-.6.4L1 34.3h-1l.2-2a90.6 90.6 0 0 0 0-7.6h1c0 1.2.2 2.3.5 3.4s.8 2 1.3 3a6 6 0 0 0 5.5 2.7 6 6 0 0 0 2.4-.6c.8-.3 1.5-1 2-1.7.5-.8.8-1.8.8-3a5.4 5.4 0 0 0-1.8-4.1 37.9 37.9 0 0 0-4.5-3.3L4 18.8C2.9 18 2 17 1.4 16c-.7-1-1-2.3-1-3.8 0-1.6.3-3 1-4 .8-1 1.7-1.7 2.8-2.2A9 9 0 0 1 8 5.2ZM7.2.4v38.9h-.8V.4h.8Zm3.4 0v38.9h-.8V.4h.8Z"/></svg>