<svg xmlns="http://www.w3.org/2000/svg" width="108" height="32" fill="none"><path fill="#fff" d="m56 12-.2.3h-.4a1 1 0 0 1-.5 0 8.4 8.4 0 0 0-1.4-.7 3 3 0 0 0-1-.2c-.7 0-1.2.2-1.6.5-.3.3-.5.7-.5 1.2 0 .3.1.6.3.8.2.2.4.4.8.5l1 .4a28.4 28.4 0 0 1 2.4 1c.4.1.8.4 1 .7.4.3.7.6.8 1a5 5 0 0 1 0 3.4 4.4 4.4 0 0 1-2.6 2.6 7 7 0 0 1-4.9-.2l-1.2-.6-1-.8 1-1.4c0-.1 0-.2.2-.3h.4l.6.1a23 23 0 0 0 1.6 1l1.2.1c.7 0 1.2-.1 1.6-.5.4-.3.6-.8.6-1.4 0-.4-.1-.7-.3-.9l-.7-.6-1-.4a40.3 40.3 0 0 1-2.5-.8c-.4-.2-.8-.4-1-.7-.4-.3-.6-.7-.8-1.2a4.5 4.5 0 0 1 0-3.2c.2-.5.6-1 1-1.4.4-.4.9-.7 1.5-1a7 7 0 0 1 4.5 0l1.9 1.2L56 12ZM74.8 16.4c0 1-.1 2-.5 3a6.8 6.8 0 0 1-3.9 3.9 8 8 0 0 1-3 .5 8 8 0 0 1-3-.5 7.1 7.1 0 0 1-4-4 8 8 0 0 1-.4-2.9c0-1 .1-2 .5-3a7 7 0 0 1 3.9-3.8 7.9 7.9 0 0 1 6 0 6.8 6.8 0 0 1 3.9 3.9c.4.9.5 1.9.5 3Zm-3 0c0-.7-.1-1.4-.3-2-.2-.6-.5-1.2-.9-1.6-.4-.4-.8-.7-1.4-1-.5-.2-1.1-.3-1.8-.3s-1.3.1-1.8.4c-.6.2-1 .5-1.4 1-.4.3-.7.9-.9 1.5-.2.6-.3 1.3-.3 2 0 .8.1 1.5.3 2 .2.7.5 1.2.9 1.6.4.4.8.7 1.4 1 .5.2 1.1.3 1.8.3s1.3-.1 1.8-.3c.6-.3 1-.6 1.4-1 .4-.4.7-1 .9-1.5.2-.6.3-1.3.3-2ZM87.3 21.2v2.5h-8.7V9.2h3v12h5.7ZM93.7 23.7h-3V9.2h3v14.5ZM106.2 12l-.3.3h-.3a1 1 0 0 1-.5 0 8.4 8.4 0 0 0-1.4-.7 3 3 0 0 0-1-.2c-.7 0-1.2.2-1.6.5-.3.3-.5.7-.5 1.2 0 .3 0 .6.3.8l.7.5 1 .4a28 28 0 0 1 2.5 1c.4.1.8.4 1 .7.4.3.6.6.8 1a5 5 0 0 1 0 3.4 4.4 4.4 0 0 1-2.7 2.6 7 7 0 0 1-4.9-.2l-1.1-.6-1-.8.9-1.4.3-.3h.4l.5.1a22.7 22.7 0 0 0 1.6 1l1.3.1c.7 0 1.2-.1 1.6-.5.4-.3.6-.8.6-1.4 0-.4-.1-.7-.3-.9l-.8-.6-1-.4a40.2 40.2 0 0 1-2.4-.8c-.4-.2-.8-.4-1-.7-.4-.3-.6-.7-.8-1.2a4.5 4.5 0 0 1 0-3.2c.2-.5.5-1 1-1.4.4-.4.9-.7 1.5-1a7 7 0 0 1 4.5 0l1.9 1.2-.8 1.4Z"/><path fill="#fff" fill-rule="evenodd" d="m21 4.8 2.5 2.4L30.7 0h-5l-4.6 4.8ZM32 8l-3.4-3.3L32 1.3v6.8ZM6 19.7l6.3-6.1 2.4 2.4-6.2 6.2-2.4-2.5Zm15 0 6.3-6.1 2.4 2.4-6.2 6.2-2.4-2.4Zm-5-2.4-2.4 2.4 6.2 6.2 2.4-2.4-6.2-6.2Zm-3.7 3.8 6.1 6.1-2.4 2.5-6.2-6.2 2.5-2.4ZM31 17.3l1 1V23l-3.5-3.4 2.5-2.4ZM2.3 16l6.2-6.2 2.4 2.4-6.1 6.2L2.3 16Zm21.2-6.2L17.3 16l2.5 2.4 6.1-6.1-2.4-2.5Zm3.8-3.7 4.7 4.7v4.8l-7.2-7.1 2.5-2.4ZM13.6 4.8l6.2 6.1 2.4-2.4L16 2.3l-2.4 2.5ZM12.3 6 9.8 8.5l6.2 6.2 2.4-2.4L12.3 6Zm13.6 21.1-2.4-2.4-7.1 7.2h4.9l4.6-4.8Zm-13.6 1.4 2.4 2.5-1 .9H9l3.4-3.4Zm-1.4-1.4-2.4-2.4L1.3 32h5l4.6-4.8Zm14-3.7 2.4-2.4 4.7 4.7v4.9l-7.2-7.2ZM0 23.9v6.8l3.4-3.4L0 23.9ZM24 32l3.3-3.4 3.4 3.4h-6.8ZM17.2 1l2.5 2.4L23 0h-4.8l-1 1ZM8.1 0 4.8 3.4 1.3 0h6.8ZM4.8 26l2.4-2.5L0 16.4v4.8L4.8 26ZM8.5 7.1 6.1 4.7 10.8 0h4.8l-7 7.2Zm-3.7 3.7 2.4-2.4L0 1.3v5l4.8 4.6Zm-1.4 1.3L1 14.8l-.9-1V9l3.4 3.3Z" clip-rule="evenodd"/></svg>