<svg xmlns="http://www.w3.org/2000/svg" width="33" height="32" fill="none"><path fill="#fff" fill-rule="evenodd" d="m21 4.8 2.5 2.4L30.7 0h-5l-4.6 4.8ZM32 8l-3.4-3.3L32 1.3v6.8ZM6 19.7l6.3-6.1 2.4 2.4-6.2 6.2-2.4-2.5Zm15 0 6.3-6.1 2.4 2.4-6.2 6.2-2.4-2.4Zm-5-2.4-2.4 2.4 6.2 6.2 2.4-2.4-6.2-6.2Zm-3.7 3.8 6.1 6.1-2.4 2.5-6.2-6.2 2.5-2.4ZM31 17.3l1 1V23l-3.5-3.4 2.5-2.4ZM2.3 16l6.2-6.2 2.4 2.4-6.1 6.2L2.3 16Zm21.2-6.2L17.3 16l2.5 2.4 6.1-6.1-2.4-2.5Zm3.8-3.7 4.7 4.7v4.8l-7.2-7.1 2.5-2.4ZM13.6 4.8l6.2 6.1 2.4-2.4L16 2.3l-2.4 2.5ZM12.3 6 9.8 8.5l6.2 6.2 2.4-2.4L12.3 6Zm13.6 21.1-2.4-2.4-7.1 7.2h4.9l4.6-4.8Zm-13.6 1.4 2.4 2.5-1 .9H9l3.4-3.4Zm-1.4-1.4-2.4-2.4L1.3 32h5l4.6-4.8Zm14-3.7 2.4-2.4 4.7 4.7v4.9l-7.2-7.2ZM0 23.9v6.8l3.4-3.4L0 23.9ZM24 32l3.3-3.4 3.4 3.4h-6.8ZM17.2 1l2.5 2.4L23 0h-4.8l-1 1ZM8.1 0 4.8 3.4 1.3 0h6.8ZM4.8 26l2.4-2.5L0 16.4v4.8L4.8 26ZM8.5 7.1 6.1 4.7 10.8 0h4.8l-7 7.2Zm-3.7 3.7 2.4-2.4L0 1.3v5l4.8 4.6Zm-1.4 1.3L1 14.8l-.9-1V9l3.4 3.3Z" clip-rule="evenodd"/></svg>