<svg xmlns="http://www.w3.org/2000/svg" width="102" height="84" fill="none"><path stroke="url(#a)" d="m34.7 1.8 2.9 5.8.2.4-.5.2c-6.6 2.8-12.3 7.1-17.2 13-4.7 6-7 12-7 18 0 2.3.3 4.3.7 6 3.4-2.6 7.3-3.8 11.7-3.8 6 0 10.9 2 14.9 5.9 4.2 3.7 6.3 8.8 6.3 15.1 0 6-2.1 11-6.3 15.2-4 4-9 5.9-14.9 5.9-8.5 0-15-3.5-19.4-10.5l-.4-.6A39.8 39.8 0 0 1 .5 51.5C.5 40.7 3.2 31 8.6 22.3A58.4 58.4 0 0 1 34 1.5l.5-.2.2.5Zm54.8 0 3 5.8.2.4-.5.2c-6.6 2.8-12.4 7.1-17.3 13-4.6 6-7 12-7 18 0 2.3.3 4.3.8 6 3.4-2.6 7.3-3.8 11.7-3.8 5.9 0 10.8 2 14.8 5.9 4.2 3.7 6.3 8.8 6.3 15.1 0 6-2.1 11-6.3 15.2-4 4-9 5.9-14.8 5.9-8.6 0-15.1-3.5-19.5-10.5-3.7-5.9-5.6-13-5.6-21.5 0-10.8 2.8-20.5 8.2-29.2A58.4 58.4 0 0 1 88.9 1.5l.4-.2.2.5Z"/><defs><linearGradient id="a" x1=".8" x2="121.4" y1="55.4" y2="73" gradientUnits="userSpaceOnUse"><stop stop-color="#53F3CD"/><stop offset="1" stop-color="#53F3CD" stop-opacity="0"/></linearGradient></defs></svg>