<svg xmlns="http://www.w3.org/2000/svg" width="24" height="24"><path d="M12.003 5.847A6.144 6.144 0 0 0 5.85 12a6.144 6.144 0 0 0 6.153 6.153A6.144 6.144 0 0 0 18.156 12a6.144 6.144 0 0 0-6.153-6.153Zm0 10.153c-2.201 0-4-1.794-4-4s1.794-4 4-4 4 1.794 4 4-1.799 4-4 4Zm7.84-10.405c0 .798-.642 1.435-1.435 1.435a1.435 1.435 0 1 1 1.435-1.435Zm4.076 1.457c-.091-1.923-.53-3.626-1.94-5.029C20.578.62 18.875.181 16.952.084c-1.981-.112-7.92-.112-9.902 0-1.917.091-3.62.53-5.028 1.934C.612 3.42.178 5.124.08 7.046c-.112 1.982-.112 7.92 0 9.902.092 1.923.531 3.626 1.94 5.029 1.408 1.403 3.106 1.842 5.028 1.939 1.982.112 7.92.112 9.902 0 1.923-.091 3.626-.53 5.029-1.939 1.403-1.403 1.842-3.106 1.939-5.029.112-1.981.112-7.915 0-9.896Zm-2.56 12.022a4.05 4.05 0 0 1-2.282 2.282c-1.58.626-5.328.482-7.074.482-1.746 0-5.5.139-7.075-.482a4.05 4.05 0 0 1-2.28-2.282c-.627-1.58-.483-5.328-.483-7.074 0-1.746-.14-5.5.482-7.074a4.05 4.05 0 0 1 2.281-2.282c1.58-.626 5.33-.482 7.075-.482 1.746 0 5.5-.139 7.074.482a4.05 4.05 0 0 1 2.282 2.282c.626 1.58.482 5.328.482 7.074 0 1.746.144 5.5-.482 7.074Z"/></svg>