<svg width="0" height="0" class="hidden">
  <symbol xmlns="http://www.w3.org/2000/svg" viewBox="0 0 14 24" id="facebook">
    <path d="m12.585 13.5.666-4.343H9.083V6.338c0-1.188.583-2.347 2.45-2.347h1.894V.293S11.707 0 10.063 0C6.631 0 4.388 2.08 4.388 5.846v3.31H.573V13.5h3.815V24h4.695V13.5h3.502Z"></path>
  </symbol>
  <symbol xmlns="http://www.w3.org/2000/svg" viewBox="0 0 24 24" id="instagram">
    <path d="M12.003 5.847A6.144 6.144 0 0 0 5.85 12a6.144 6.144 0 0 0 6.153 6.153A6.144 6.144 0 0 0 18.156 12a6.144 6.144 0 0 0-6.153-6.153Zm0 10.153c-2.201 0-4-1.794-4-4s1.794-4 4-4 4 1.794 4 4-1.799 4-4 4Zm7.84-10.405c0 .798-.642 1.435-1.435 1.435a1.435 1.435 0 1 1 1.435-1.435Zm4.076 1.457c-.091-1.923-.53-3.626-1.94-5.029C20.578.62 18.875.181 16.952.084c-1.981-.112-7.92-.112-9.902 0-1.917.091-3.62.53-5.028 1.934C.612 3.42.178 5.124.08 7.046c-.112 1.982-.112 7.92 0 9.902.092 1.923.531 3.626 1.94 5.029 1.408 1.403 3.106 1.842 5.028 1.939 1.982.112 7.92.112 9.902 0 1.923-.091 3.626-.53 5.029-1.939 1.403-1.403 1.842-3.106 1.939-5.029.112-1.981.112-7.915 0-9.896Zm-2.56 12.022a4.05 4.05 0 0 1-2.282 2.282c-1.58.626-5.328.482-7.074.482-1.746 0-5.5.139-7.075-.482a4.05 4.05 0 0 1-2.28-2.282c-.627-1.58-.483-5.328-.483-7.074 0-1.746-.14-5.5.482-7.074a4.05 4.05 0 0 1 2.281-2.282c1.58-.626 5.33-.482 7.075-.482 1.746 0 5.5-.139 7.074.482a4.05 4.05 0 0 1 2.282 2.282c.626 1.58.482 5.328.482 7.074 0 1.746.144 5.5-.482 7.074Z"></path>
  </symbol>
  <symbol xmlns="http://www.w3.org/2000/svg" viewBox="0 0 24 24" id="linkedin">
    <path d="M5.372 24H.396V7.976h4.976V24ZM2.882 5.79C1.29 5.79 0 4.474 0 2.883a2.882 2.882 0 1 1 5.763 0c0 1.59-1.29 2.909-2.881 2.909ZM23.995 24H19.03v-7.8c0-1.86-.037-4.243-2.587-4.243-2.587 0-2.983 2.02-2.983 4.109V24H8.49V7.976h4.771v2.186h.07c.664-1.259 2.287-2.587 4.708-2.587 5.036 0 5.961 3.316 5.961 7.623V24h-.005Z"></path>
  </symbol>
  <symbol xmlns="http://www.w3.org/2000/svg" viewBox="0 0 20 17" id="twitter">
    <path d="M19.97 2.464a7.991 7.991 0 0 1-1.846 1.778v.55a12.19 12.19 0 0 1-3.621 8.69A12.178 12.178 0 0 1 5.773 17 12.217 12.217 0 0 1 .33 15.74a.25.25 0 0 1-.15-.23v-.11a.26.26 0 0 1 .26-.26 8.844 8.844 0 0 0 5.112-1.837 4.363 4.363 0 0 1-3.884-2.558.26.26 0 0 1 .26-.36c.51.052 1.025.004 1.518-.14A4.355 4.355 0 0 1 0 6.44a.26.26 0 0 1 .36-.26c.497.22 1.033.335 1.577.34A4.277 4.277 0 0 1 .23 1.585a.54.54 0 0 1 .91-.18A12.339 12.339 0 0 0 9.535 5.28a3.998 3.998 0 0 1-.12-1 4.352 4.352 0 0 1 7.499-2.937 8.674 8.674 0 0 0 2.387-.828.17.17 0 0 1 .18 0 .17.17 0 0 1 0 .18 4.365 4.365 0 0 1-1.758 1.998 8.563 8.563 0 0 0 1.997-.48.16.16 0 0 1 .18 0 .17.17 0 0 1 .07.25Z"></path>
  </symbol>
</svg>