<svg width="0" height="0" class="hidden">
  <symbol xmlns="http://www.w3.org/2000/svg" viewBox="0 0 640 640" id="clock-regular-full">
    <path d="M528 320C528 434.9 434.9 528 320 528C205.1 528 112 434.9 112 320C112 205.1 205.1 112 320 112C434.9 112 528 205.1 528 320zM64 320C64 461.4 178.6 576 320 576C461.4 576 576 461.4 576 320C576 178.6 461.4 64 320 64C178.6 64 64 178.6 64 320zM296 184L296 320C296 328 300 335.5 306.7 340L402.7 404C413.7 411.4 428.6 408.4 436 397.3C443.4 386.2 440.4 371.4 429.3 364L344 307.2L344 184C344 170.7 333.3 160 320 160C306.7 160 296 170.7 296 184z"></path>
  </symbol>
  <symbol xmlns="http://www.w3.org/2000/svg" viewBox="0 0 320 512" id="fb">
    <path d="M279.14 288l14.22-92.66h-88.91v-60.13c0-25.35 12.42-50.06 52.24-50.06h40.42V6.26S260.43 0 225.36 0c-73.22 0-121.08 44.38-121.08 124.72v70.62H22.89V288h81.39v224h100.17V288z"></path>
  </symbol>
  <symbol fill="none" xmlns="http://www.w3.org/2000/svg" viewBox="0 0 70 70" id="Group">
    <path fill-rule="evenodd" clip-rule="evenodd" d="M28.4375 52.5C31.5974 52.5 34.7264 51.8776 37.6458 50.6684C40.5652 49.4591 43.2178 47.6867 45.4523 45.4523C47.6867 43.2178 49.4591 40.5652 50.6684 37.6458C51.8776 34.7264 52.5 31.5974 52.5 28.4375C52.5 25.2776 51.8776 22.1486 50.6684 19.2292C49.4591 16.3098 47.6867 13.6572 45.4523 11.4227C43.2178 9.18833 40.5652 7.4159 37.6458 6.20665C34.7264 4.9974 31.5974 4.375 28.4375 4.375C22.0557 4.375 15.9353 6.91015 11.4227 11.4227C6.91015 15.9353 4.375 22.0557 4.375 28.4375C4.375 34.8193 6.91015 40.9397 11.4227 45.4523C15.9353 49.9649 22.0557 52.5 28.4375 52.5ZM56.875 28.4375C56.875 35.9796 53.8789 43.2128 48.5458 48.5458C43.2128 53.8789 35.9796 56.875 28.4375 56.875C20.8954 56.875 13.6622 53.8789 8.32915 48.5458C2.99609 43.2128 0 35.9796 0 28.4375C0 20.8954 2.99609 13.6622 8.32915 8.32915C13.6622 2.99609 20.8954 0 28.4375 0C35.9796 0 43.2128 2.99609 48.5458 8.32915C53.8789 13.6622 56.875 20.8954 56.875 28.4375Z" fill="white"></path>
    <path d="M45.255 51.3714C45.3863 51.5464 45.5263 51.7126 45.6838 51.8745L62.5275 68.7182C63.3479 69.5392 64.4607 70.0006 65.6213 70.001C66.7818 70.0014 67.895 69.5408 68.7159 68.7204C69.5369 67.9001 69.9983 66.7872 69.9987 65.6267C69.9991 64.4661 69.5385 63.3529 68.7181 62.532L51.8744 45.6882C51.718 45.5299 51.5498 45.3836 51.3713 45.2507C49.655 47.5908 47.5927 49.6561 45.255 51.3757V51.3714Z" fill="white"></path>
    <path fill-rule="evenodd" clip-rule="evenodd" d="M28.4375 13.125C29.0177 13.125 29.5741 13.3555 29.9843 13.7657C30.3945 14.1759 30.625 14.7323 30.625 15.3125V26.25H41.5625C42.1427 26.25 42.6991 26.4805 43.1093 26.8907C43.5195 27.3009 43.75 27.8573 43.75 28.4375C43.75 29.0177 43.5195 29.5741 43.1093 29.9843C42.6991 30.3945 42.1427 30.625 41.5625 30.625H30.625V41.5625C30.625 42.1427 30.3945 42.6991 29.9843 43.1093C29.5741 43.5195 29.0177 43.75 28.4375 43.75C27.8573 43.75 27.3009 43.5195 26.8907 43.1093C26.4805 42.6991 26.25 42.1427 26.25 41.5625V30.625H15.3125C14.7323 30.625 14.1759 30.3945 13.7657 29.9843C13.3555 29.5741 13.125 29.0177 13.125 28.4375C13.125 27.8573 13.3555 27.3009 13.7657 26.8907C14.1759 26.4805 14.7323 26.25 15.3125 26.25H26.25V15.3125C26.25 14.7323 26.4805 14.1759 26.8907 13.7657C27.3009 13.3555 27.8573 13.125 28.4375 13.125Z" fill="white"></path>
  </symbol>
  <symbol xmlns="http://www.w3.org/2000/svg" viewBox="0 0 640 640" id="inbox-solid-full">
    <path d="M155.8 96C123.9 96 96.9 119.4 92.4 150.9L64.6 345.2C64.2 348.2 64 351.2 64 354.3L64 480C64 515.3 92.7 544 128 544L512 544C547.3 544 576 515.3 576 480L576 354.3C576 351.3 575.8 348.2 575.4 345.2L547.6 150.9C543.1 119.4 516.1 96 484.2 96L155.8 96zM155.8 160L484.3 160L511.7 352L451.8 352C439.7 352 428.6 358.8 423.2 369.7L408.9 398.3C403.5 409.1 392.4 416 380.3 416L259.9 416C247.8 416 236.7 409.2 231.3 398.3L217 369.7C211.6 358.9 200.5 352 188.4 352L128.3 352L155.8 160z"></path>
  </symbol>
  <symbol xmlns="http://www.w3.org/2000/svg" viewBox="0 0 448 512" id="instagram-brands-solid">
    <path d="M224.1 141c-63.6 0-114.9 51.3-114.9 114.9s51.3 114.9 114.9 114.9S339 319.5 339 255.9 287.7 141 224.1 141zm0 189.6c-41.1 0-74.7-33.5-74.7-74.7s33.5-74.7 74.7-74.7 74.7 33.5 74.7 74.7-33.6 74.7-74.7 74.7zm146.4-194.3c0 14.9-12 26.8-26.8 26.8-14.9 0-26.8-12-26.8-26.8s12-26.8 26.8-26.8 26.8 12 26.8 26.8zm76.1 27.2c-1.7-35.9-9.9-67.7-36.2-93.9-26.2-26.2-58-34.4-93.9-36.2-37-2.1-147.9-2.1-184.9 0-35.8 1.7-67.6 9.9-93.9 36.1s-34.4 58-36.2 93.9c-2.1 37-2.1 147.9 0 184.9 1.7 35.9 9.9 67.7 36.2 93.9s58 34.4 93.9 36.2c37 2.1 147.9 2.1 184.9 0 35.9-1.7 67.7-9.9 93.9-36.2 26.2-26.2 34.4-58 36.2-93.9 2.1-37 2.1-147.8 0-184.8zM398.8 388c-7.8 19.6-22.9 34.7-42.6 42.6-29.5 11.7-99.5 9-132.1 9s-102.7 2.6-132.1-9c-19.6-7.8-34.7-22.9-42.6-42.6-11.7-29.5-9-99.5-9-132.1s-2.6-102.7 9-132.1c7.8-19.6 22.9-34.7 42.6-42.6 29.5-11.7 99.5-9 132.1-9s102.7-2.6 132.1 9c19.6 7.8 34.7 22.9 42.6 42.6 11.7 29.5 9 99.5 9 132.1s2.7 102.7-9 132.1z"></path>
  </symbol>
  <symbol xmlns="http://www.w3.org/2000/svg" viewBox="0 0 640 640" id="location-dot-solid-full">
    <path d="M128 252.6C128 148.4 214 64 320 64C426 64 512 148.4 512 252.6C512 371.9 391.8 514.9 341.6 569.4C329.8 582.2 310.1 582.2 298.3 569.4C248.1 514.9 127.9 371.9 127.9 252.6zM320 320C355.3 320 384 291.3 384 256C384 220.7 355.3 192 320 192C284.7 192 256 220.7 256 256C256 291.3 284.7 320 320 320z"></path>
  </symbol>
  <symbol xmlns="http://www.w3.org/2000/svg" viewBox="0 0 640 640" id="phone-solid-full">
    <path d="M224.2 89C216.3 70.1 195.7 60.1 176.1 65.4L170.6 66.9C106 84.5 50.8 147.1 66.9 223.3C104 398.3 241.7 536 416.7 573.1C493 589.3 555.5 534 573.1 469.4L574.6 463.9C580 444.2 569.9 423.6 551.1 415.8L453.8 375.3C437.3 368.4 418.2 373.2 406.8 387.1L368.2 434.3C297.9 399.4 241.3 341 208.8 269.3L253 233.3C266.9 222 271.6 202.9 264.8 186.3L224.2 89z"></path>
  </symbol>
  <symbol xmlns="http://www.w3.org/2000/svg" viewBox="0 0 512 512" id="twitter-brands-solid">
    <path d="M459.37 151.716c.325 4.548.325 9.097.325 13.645 0 138.72-105.583 298.558-298.558 298.558-59.452 0-114.68-17.219-161.137-47.106 8.447.974 16.568 1.299 25.34 1.299 49.055 0 94.213-16.568 130.274-44.832-46.132-.975-84.792-31.188-98.112-72.772 6.498.974 12.995 1.624 19.818 1.624 9.421 0 18.843-1.3 27.614-3.573-48.081-9.747-84.143-51.98-84.143-102.985v-1.299c13.969 7.797 30.214 12.67 47.431 13.319-28.264-18.843-46.781-51.005-46.781-87.391 0-19.492 5.197-37.36 14.294-52.954 51.655 63.675 129.3 105.258 216.365 109.807-1.624-7.797-2.599-15.918-2.599-24.04 0-57.828 46.782-104.934 104.934-104.934 30.213 0 57.502 12.67 76.67 33.137 23.715-4.548 46.456-13.32 66.599-25.34-7.798 24.366-24.366 44.833-46.132 57.827 21.117-2.273 41.584-8.122 60.426-16.243-14.292 20.791-32.161 39.308-52.628 54.253z"></path>
  </symbol>
</svg>