<svg width="200" height="36" viewBox="0 0 200 36" fill="none" xmlns="http://www.w3.org/2000/svg">
<path d="M49.952 9.22V16.465H58.562C59.052 16.465 59.4487 16.6167 59.752 16.92C60.0787 17.2233 60.242 17.62 60.242 18.11C60.242 18.53 60.0787 18.8917 59.752 19.195C59.4487 19.4983 59.052 19.65 58.562 19.65H49.952V28.82C49.952 29.2867 49.777 29.6833 49.427 30.01C49.1003 30.3367 48.7037 30.5 48.237 30.5C47.747 30.5 47.3387 30.3367 47.012 30.01C46.6853 29.6833 46.522 29.2867 46.522 28.82V7.68C46.522 7.21333 46.6853 6.81666 47.012 6.49C47.3387 6.16333 47.7353 6 48.202 6H60.137C60.627 6 61.0237 6.15167 61.327 6.455C61.6537 6.75833 61.817 7.155 61.817 7.645C61.817 8.065 61.6537 8.43833 61.327 8.765C61.0003 9.06833 60.6037 9.22 60.137 9.22H49.952ZM74.6852 11.74C75.2919 11.74 75.8169 11.9033 76.2602 12.23C76.7036 12.5333 76.9252 12.9183 76.9252 13.385C76.9252 13.945 76.7736 14.3767 76.4702 14.68C76.1902 14.96 75.8402 15.1 75.4202 15.1C75.2102 15.1 74.8952 15.03 74.4752 14.89C73.9852 14.7267 73.6002 14.645 73.3202 14.645C72.5969 14.645 71.8852 14.9017 71.1852 15.415C70.5086 15.905 69.9486 16.5933 69.5052 17.48C69.0852 18.3433 68.8752 19.3117 68.8752 20.385V28.82C68.8752 29.2867 68.7119 29.6833 68.3852 30.01C68.0819 30.3367 67.6852 30.5 67.1952 30.5C66.7052 30.5 66.3086 30.3483 66.0052 30.045C65.7019 29.7183 65.5502 29.31 65.5502 28.82V13.84C65.5502 13.3733 65.7019 12.9767 66.0052 12.65C66.3319 12.3233 66.7286 12.16 67.1952 12.16C67.6852 12.16 68.0819 12.3233 68.3852 12.65C68.7119 12.9767 68.8752 13.3733 68.8752 13.84V15.625C69.3886 14.4817 70.1586 13.56 71.1852 12.86C72.2119 12.1367 73.3786 11.7633 74.6852 11.74ZM95.3221 20.63C95.2988 21.05 95.1238 21.4117 94.7971 21.715C94.4705 21.995 94.0855 22.135 93.6421 22.135H81.3221C81.4855 23.8383 82.1271 25.2033 83.2471 26.23C84.3905 27.2567 85.7788 27.77 87.4121 27.77C88.5321 27.77 89.4421 27.6067 90.1421 27.28C90.8421 26.9533 91.4605 26.5333 91.9971 26.02C92.3471 25.81 92.6855 25.705 93.0121 25.705C93.4088 25.705 93.7355 25.845 93.9921 26.125C94.2721 26.405 94.4121 26.7317 94.4121 27.105C94.4121 27.595 94.1788 28.0383 93.7121 28.435C93.0355 29.1117 92.1371 29.6833 91.0171 30.15C89.8971 30.6167 88.7538 30.85 87.5871 30.85C85.6971 30.85 84.0288 30.4533 82.5821 29.66C81.1588 28.8667 80.0505 27.7583 79.2571 26.335C78.4871 24.9117 78.1021 23.3017 78.1021 21.505C78.1021 19.545 78.4988 17.83 79.2921 16.36C80.1088 14.8667 81.1705 13.7233 82.4771 12.93C83.8071 12.1367 85.2305 11.74 86.7471 11.74C88.2405 11.74 89.6405 12.125 90.9471 12.895C92.2538 13.665 93.3038 14.7267 94.0971 16.08C94.8905 17.4333 95.2988 18.95 95.3221 20.63ZM86.7471 14.82C85.4405 14.82 84.3088 15.1933 83.3521 15.94C82.3955 16.6633 81.7655 17.795 81.4621 19.335H91.7871V19.055C91.6705 17.8183 91.1105 16.8033 90.1071 16.01C89.1271 15.2167 88.0071 14.82 86.7471 14.82ZM115.283 20.63C115.26 21.05 115.085 21.4117 114.758 21.715C114.431 21.995 114.046 22.135 113.603 22.135H101.283C101.446 23.8383 102.088 25.2033 103.208 26.23C104.351 27.2567 105.74 27.77 107.373 27.77C108.493 27.77 109.403 27.6067 110.103 27.28C110.803 26.9533 111.421 26.5333 111.958 26.02C112.308 25.81 112.646 25.705 112.973 25.705C113.37 25.705 113.696 25.845 113.953 26.125C114.233 26.405 114.373 26.7317 114.373 27.105C114.373 27.595 114.14 28.0383 113.673 28.435C112.996 29.1117 112.098 29.6833 110.978 30.15C109.858 30.6167 108.715 30.85 107.548 30.85C105.658 30.85 103.99 30.4533 102.543 29.66C101.12 28.8667 100.011 27.7583 99.2181 26.335C98.4481 24.9117 98.0631 23.3017 98.0631 21.505C98.0631 19.545 98.4597 17.83 99.2531 16.36C100.07 14.8667 101.131 13.7233 102.438 12.93C103.768 12.1367 105.191 11.74 106.708 11.74C108.201 11.74 109.601 12.125 110.908 12.895C112.215 13.665 113.265 14.7267 114.058 16.08C114.851 17.4333 115.26 18.95 115.283 20.63ZM106.708 14.82C105.401 14.82 104.27 15.1933 103.313 15.94C102.356 16.6633 101.726 17.795 101.423 19.335H111.748V19.055C111.631 17.8183 111.071 16.8033 110.068 16.01C109.088 15.2167 107.968 14.82 106.708 14.82ZM128.279 11.845C132.386 11.845 134.439 14.3883 134.439 19.475V28.82C134.439 29.2867 134.276 29.6833 133.949 30.01C133.646 30.3367 133.249 30.5 132.759 30.5C132.292 30.5 131.896 30.3367 131.569 30.01C131.266 29.6833 131.114 29.2867 131.114 28.82V19.475C131.114 16.4417 129.831 14.925 127.264 14.925C125.887 14.925 124.744 15.3683 123.834 16.255C122.924 17.1183 122.469 18.1917 122.469 19.475V28.82C122.469 29.2867 122.306 29.6833 121.979 30.01C121.676 30.3367 121.279 30.5 120.789 30.5C120.299 30.5 119.902 30.3483 119.599 30.045C119.296 29.7183 119.144 29.31 119.144 28.82V6.28C119.144 5.81333 119.296 5.41667 119.599 5.09C119.926 4.76333 120.322 4.6 120.789 4.6C121.279 4.6 121.676 4.76333 121.979 5.09C122.306 5.41667 122.469 5.81333 122.469 6.28V15.135C123.052 14.225 123.869 13.455 124.919 12.825C125.969 12.1717 127.089 11.845 128.279 11.845ZM154.288 11.915C154.778 11.915 155.174 12.0783 155.478 12.405C155.804 12.7083 155.968 13.1167 155.968 13.63V28.82C155.968 29.2867 155.804 29.6833 155.478 30.01C155.174 30.3367 154.778 30.5 154.288 30.5C153.798 30.5 153.401 30.3483 153.098 30.045C152.794 29.7183 152.643 29.31 152.643 28.82V27.91C152.036 28.7267 151.208 29.4267 150.158 30.01C149.108 30.57 147.976 30.85 146.763 30.85C145.176 30.85 143.729 30.4417 142.423 29.625C141.139 28.8083 140.124 27.6767 139.378 26.23C138.654 24.76 138.293 23.115 138.293 21.295C138.293 19.475 138.654 17.8417 139.378 16.395C140.124 14.925 141.139 13.7817 142.423 12.965C143.706 12.1483 145.118 11.74 146.658 11.74C147.894 11.74 149.038 11.9967 150.088 12.51C151.161 13.0233 152.013 13.6767 152.643 14.47V13.63C152.643 13.14 152.794 12.7317 153.098 12.405C153.401 12.0783 153.798 11.915 154.288 11.915ZM147.148 27.77C148.244 27.77 149.213 27.49 150.053 26.93C150.916 26.37 151.581 25.6 152.048 24.62C152.538 23.64 152.783 22.5317 152.783 21.295C152.783 20.0817 152.538 18.985 152.048 18.005C151.581 17.025 150.916 16.255 150.053 15.695C149.213 15.1117 148.244 14.82 147.148 14.82C146.051 14.82 145.071 15.1 144.208 15.66C143.368 16.22 142.703 16.99 142.213 17.97C141.746 18.95 141.513 20.0583 141.513 21.295C141.513 22.5317 141.746 23.64 142.213 24.62C142.703 25.6 143.368 26.37 144.208 26.93C145.071 27.49 146.051 27.77 147.148 27.77ZM170.257 11.74C174.457 11.74 176.557 14.26 176.557 19.3V28.82C176.557 29.2867 176.393 29.6833 176.067 30.01C175.763 30.3367 175.367 30.5 174.877 30.5C174.41 30.5 174.013 30.3367 173.687 30.01C173.383 29.6833 173.232 29.2867 173.232 28.82V19.335C173.232 17.9583 172.917 16.8617 172.287 16.045C171.657 15.2283 170.63 14.82 169.207 14.82C168.273 14.82 167.422 15.03 166.652 15.45C165.905 15.8467 165.31 16.395 164.867 17.095C164.447 17.7717 164.237 18.5183 164.237 19.335V28.82C164.237 29.2867 164.073 29.6833 163.747 30.01C163.443 30.3367 163.047 30.5 162.557 30.5C162.067 30.5 161.67 30.3483 161.367 30.045C161.063 29.7183 160.912 29.31 160.912 28.82V13.84C160.912 13.3733 161.063 12.9767 161.367 12.65C161.693 12.3233 162.09 12.16 162.557 12.16C163.047 12.16 163.443 12.3233 163.747 12.65C164.073 12.9767 164.237 13.3733 164.237 13.84V15.065C164.843 14.1317 165.683 13.35 166.757 12.72C167.853 12.0667 169.02 11.74 170.257 11.74ZM196.397 4.6C196.887 4.6 197.284 4.76333 197.587 5.09C197.914 5.39333 198.077 5.79 198.077 6.28V28.82C198.077 29.2867 197.914 29.6833 197.587 30.01C197.284 30.3367 196.887 30.5 196.397 30.5C195.907 30.5 195.51 30.3483 195.207 30.045C194.904 29.7183 194.752 29.31 194.752 28.82V27.84C194.169 28.68 193.34 29.3917 192.267 29.975C191.217 30.5583 190.085 30.85 188.872 30.85C187.285 30.85 185.85 30.4417 184.567 29.625C183.284 28.8083 182.269 27.6767 181.522 26.23C180.775 24.76 180.402 23.115 180.402 21.295C180.402 19.475 180.764 17.8417 181.487 16.395C182.234 14.925 183.249 13.7817 184.532 12.965C185.815 12.1483 187.227 11.74 188.767 11.74C190.004 11.74 191.147 11.9967 192.197 12.51C193.247 13.0233 194.099 13.6883 194.752 14.505V6.28C194.752 5.79 194.904 5.39333 195.207 5.09C195.51 4.76333 195.907 4.6 196.397 4.6ZM189.257 27.77C190.354 27.77 191.322 27.49 192.162 26.93C193.025 26.37 193.69 25.6 194.157 24.62C194.647 23.64 194.892 22.5317 194.892 21.295C194.892 20.0817 194.647 18.985 194.157 18.005C193.69 17.0017 193.025 16.22 192.162 15.66C191.322 15.1 190.354 14.82 189.257 14.82C188.16 14.82 187.18 15.1 186.317 15.66C185.477 16.22 184.812 17.0017 184.322 18.005C183.855 18.985 183.622 20.0817 183.622 21.295C183.622 22.5317 183.855 23.64 184.322 24.62C184.812 25.6 185.477 26.37 186.317 26.93C187.18 27.49 188.16 27.77 189.257 27.77Z" fill="white"/>
<path d="M23.2972 2C27.8569 2 31.5638 5.7184 31.5638 10.2871C31.5638 13.3485 29.9182 16.0644 27.3666 17.5C29.9182 18.9356 31.5638 21.6515 31.5638 24.7129C31.5638 29.2816 27.8569 33 23.2972 33C20.2408 32.9999 17.4911 31.2932 16.0638 28.7158C14.6365 31.2932 11.8867 32.9999 8.83044 33C4.27077 33 0.563843 29.2816 0.563843 24.7129C0.563843 21.6518 2.2089 18.9357 4.76013 17.5C2.2089 16.0643 0.563843 13.3482 0.563843 10.2871C0.563843 5.7184 4.27077 2 8.83044 2C11.8864 2.00011 14.6364 3.70623 16.0638 6.2832C17.4912 3.7062 20.2411 2.00011 23.2972 2ZM23.2972 3.75C20.2318 3.75014 17.5475 5.9331 16.9193 8.93848C16.835 9.34322 16.4784 9.63477 16.0638 9.63477C15.6494 9.63472 15.2927 9.34319 15.2084 8.93848C14.58 5.9331 11.8959 3.75014 8.83044 3.75C5.23793 3.75 2.31189 6.68162 2.31189 10.2871C2.31189 13.3429 4.38363 15.9559 7.35095 16.6475C7.74805 16.7397 8.02673 17.0948 8.02673 17.5C8.02673 17.9055 7.74746 18.2595 7.34998 18.3516C4.38303 19.0434 2.31189 21.6573 2.31189 24.7129C2.31189 28.3184 5.23793 31.25 8.83044 31.25C11.8959 31.2499 14.58 29.0669 15.2084 26.0615L15.2523 25.915C15.3828 25.5883 15.7013 25.3653 16.0638 25.3652C16.4264 25.3652 16.7449 25.5883 16.8754 25.915L16.9193 26.0615L16.9838 26.3408C17.7152 29.2013 20.3275 31.2499 23.2972 31.25C26.8898 31.25 29.8158 28.3184 29.8158 24.7129C29.8158 21.6571 27.7441 19.0441 24.7767 18.3525C24.3796 18.2603 24.101 17.9052 24.101 17.5C24.101 17.0948 24.3796 16.7397 24.7767 16.6475C27.7441 15.9559 29.8158 13.3429 29.8158 10.2871C29.8158 6.68162 26.8898 3.75 23.2972 3.75Z" fill="#3DB370" stroke="#3DB370"/>
</svg>
