<svg width="0" height="0" class="hidden">
  <symbol fill="none" xmlns="http://www.w3.org/2000/svg" viewBox="0 0 40 36" id="building-blue">
    <path d="M36.7767 13.3215V32.9997C36.7767 34.325 35.6279 35.3997 34.2113 35.3997H5.99167C4.57508 35.3997 3.42625 34.325 3.42625 32.9997C3.42625 14.3965 3.42457 17.8814 3.43187 13.3215H36.7767Z" fill="#D1E7FF"></path>
    <path d="M36.7767 13.3215V17.8664C36.7767 18.8499 35.934 19.6647 34.8827 19.6687C34.871 19.6687 5.34078 19.6687 5.31946 19.6687C4.26844 19.6644 3.42626 18.8496 3.42626 17.8664C3.42626 16.5546 3.4253 17.4602 3.43187 13.3215H36.7767Z" fill="#B9DCFF"></path>
    <path d="M26.5952 24.6749V35.3998H13.6077V24.6749C13.6077 23.3496 14.7566 22.2749 16.1732 22.2749H24.0298C25.4464 22.2749 26.5952 23.3496 26.5952 24.6749Z" fill="#E8F3FF"></path>
    <path d="M38.7007 13.3215C38.7007 15.7228 36.6193 17.6715 34.0509 17.6715C31.4831 17.6715 29.4011 15.7237 29.4011 13.3215C29.4011 15.7237 27.3191 17.6715 24.7513 17.6715C22.1835 17.6715 20.1015 15.7237 20.1015 13.3215C20.1015 15.7237 18.0195 17.6715 15.4516 17.6715C12.8838 17.6715 10.8018 15.7237 10.8018 13.3215C10.7978 15.708 8.69817 17.6715 6.152 17.6715C3.60895 17.6715 1.50618 15.7105 1.50218 13.3215C1.50218 9.54093 1.49111 9.77358 1.53024 9.60003C1.56872 9.4297 1.30199 10.0328 5.33587 1.32309C5.5395 0.884345 6.00208 0.600098 6.51276 0.600098H33.6902C34.2008 0.600098 34.6634 0.884345 34.867 1.32309C38.9039 10.0392 38.6341 9.42955 38.6727 9.60003C38.7117 9.7732 38.7007 9.5368 38.7007 13.3215Z" fill="#B9DCFF"></path>
    <path d="M38.7007 13.3215C38.7007 15.7227 36.6193 17.6714 34.0509 17.6714C31.4831 17.6714 29.4011 15.7237 29.4011 13.3215C29.4011 15.7237 27.3191 17.6714 24.7513 17.6714C22.1834 17.6714 20.1014 15.7237 20.1014 13.3215C20.1014 15.7237 18.0194 17.6714 15.4516 17.6714C12.8838 17.6714 10.8018 15.7237 10.8018 13.3215C10.7978 15.7079 8.69814 17.6714 6.15196 17.6714C3.60891 17.6714 1.50615 15.7104 1.50214 13.3215C1.49581 9.5203 1.49677 9.74837 1.5302 9.6001H38.6727C38.7117 9.77327 38.7007 9.53687 38.7007 13.3215Z" fill="#B9DCFF"></path>
    <path d="M33.3437 3.8062C25.2003 2.7577 16.9818 4.10253 10.3345 8.78839C9.58623 9.31586 8.67422 9.60011 7.73737 9.60011H1.53033C1.56882 9.42979 1.30209 10.0329 5.33597 1.3231C5.5396 0.884348 6.00218 0.600098 6.51286 0.600098H33.6903C34.2014 0.600098 34.6638 0.884048 34.867 1.3228L35.0457 1.70845C35.5464 2.78943 34.5913 3.96685 33.3437 3.8062Z" fill="white"></path>
    <path d="M37.418 20.325V33C37.418 34.6542 35.9795 36 34.2113 36H5.99165C4.22343 36 2.78487 34.6542 2.78487 33V20.325C2.78487 19.9937 3.07204 19.725 3.42623 19.725C3.78042 19.725 4.06758 19.9937 4.06758 20.325V33C4.06758 33.9925 4.93069 34.8 5.99165 34.8H12.9664V24.675C12.9664 23.0208 14.4049 21.675 16.1732 21.675H24.0297C25.798 21.675 27.2365 23.0208 27.2365 24.675V32.4C27.2365 32.7313 26.9494 33 26.5952 33C26.241 33 25.9538 32.7313 25.9538 32.4V24.675C25.9538 23.6825 25.0906 22.875 24.0297 22.875H16.1732C15.1123 22.875 14.2491 23.6825 14.2491 24.675V34.8H19.4601V25.35C19.4601 25.0187 19.7473 24.75 20.1014 24.75C20.4556 24.75 20.7428 25.0187 20.7428 25.35V34.8H34.2113C35.2721 34.8 36.1353 33.9925 36.1353 33V20.325C36.1353 19.9937 36.4225 19.725 36.7767 19.725C37.1309 19.725 37.418 19.9936 37.418 20.325ZM5.02962 9.6C5.02962 9.93135 5.31678 10.2 5.67097 10.2C40.5661 10.2 38.836 10.2584 39.0909 10.0754C39.2242 9.9795 39.3113 9.84112 39.3352 9.68303C39.3709 9.4419 39.6011 10.0349 35.1204 0.361425C35.0186 0.141975 34.7875 0 34.5318 0H5.67089C5.41531 0 5.18402 0.14205 5.08245 0.361425L0.913642 9.36143C0.839966 9.52058 0.86073 9.26798 0.86073 13.3224C0.86538 16.0513 3.23895 18.2714 6.15191 18.2714C8.15446 18.2714 9.90207 17.2222 10.8004 15.6797C12.8067 19.129 18.0914 19.1328 20.1014 15.682C22.1098 19.13 27.3921 19.1308 29.401 15.682C30.2987 17.2232 32.0464 18.2714 34.0508 18.2714C36.9684 18.2714 39.342 16.0509 39.342 13.3214C39.342 12.9901 39.0548 12.7214 38.7006 12.7214C38.3465 12.7214 38.0593 12.9901 38.0593 13.3214C38.0593 15.3892 36.2611 17.0714 34.0508 17.0714C31.8406 17.0714 30.0424 15.3892 30.0424 13.3214C30.0424 12.9901 29.7552 12.7214 29.401 12.7214C29.0468 12.7214 28.7597 12.9901 28.7597 13.3214C28.7597 15.3892 26.9615 17.0714 24.7512 17.0714C22.5409 17.0714 20.7427 15.3892 20.7427 13.3214C20.7427 12.9901 20.4556 12.7214 20.1014 12.7214C19.7472 12.7214 19.46 12.9901 19.46 13.3214C19.46 15.3892 17.6618 17.0714 15.4515 17.0714C13.2904 17.0714 11.4431 15.4466 11.4431 13.2914C11.4431 12.9601 11.1559 12.6914 10.8017 12.6914C10.4475 12.6914 10.1604 12.9601 10.1604 13.2914C10.1604 15.4284 8.32457 17.0714 6.15191 17.0714C3.94516 17.0714 2.14689 15.3887 2.14344 13.3214V9.72435L6.09202 1.2H34.1109L37.7238 9H5.67097C5.3167 9 5.02962 9.26858 5.02962 9.6Z" fill="#007FFC"></path>
  </symbol>
  <symbol fill="none" xmlns="http://www.w3.org/2000/svg" viewBox="0 0 40 36" id="building-green">
    <path d="M36.7767 13.3215V32.9997C36.7767 34.325 35.6279 35.3997 34.2113 35.3997H5.99167C4.57508 35.3997 3.42625 34.325 3.42625 32.9997C3.42625 14.3965 3.42457 17.8814 3.43187 13.3215H36.7767Z" fill="#E1F4F5"></path>
    <path d="M36.7767 13.3215V17.8664C36.7767 18.8499 35.934 19.6647 34.8827 19.6687C34.871 19.6687 5.34078 19.6687 5.31946 19.6687C4.26844 19.6644 3.42626 18.8496 3.42626 17.8664C3.42626 16.5546 3.4253 17.4602 3.43187 13.3215H36.7767Z" fill="#CAEFF2"></path>
    <path d="M26.5952 24.6749V35.3998H13.6077V24.6749C13.6077 23.3496 14.7566 22.2749 16.1732 22.2749H24.0298C25.4464 22.2749 26.5952 23.3496 26.5952 24.6749Z" fill="#F4FEFF"></path>
    <path d="M38.7007 13.3215C38.7007 15.7228 36.6193 17.6715 34.0509 17.6715C31.4831 17.6715 29.4011 15.7237 29.4011 13.3215C29.4011 15.7237 27.3191 17.6715 24.7513 17.6715C22.1835 17.6715 20.1015 15.7237 20.1015 13.3215C20.1015 15.7237 18.0195 17.6715 15.4516 17.6715C12.8838 17.6715 10.8018 15.7237 10.8018 13.3215C10.7978 15.708 8.69817 17.6715 6.152 17.6715C3.60895 17.6715 1.50618 15.7105 1.50218 13.3215C1.50218 9.54093 1.49111 9.77358 1.53024 9.60003C1.56872 9.4297 1.30199 10.0328 5.33587 1.32309C5.5395 0.884345 6.00208 0.600098 6.51276 0.600098H33.6902C34.2008 0.600098 34.6634 0.884345 34.867 1.32309C38.9039 10.0392 38.6341 9.42955 38.6727 9.60003C38.7117 9.7732 38.7007 9.5368 38.7007 13.3215Z" fill="#CAEFF2"></path>
    <path d="M38.7007 13.3215C38.7007 15.7227 36.6193 17.6714 34.0509 17.6714C31.4831 17.6714 29.4011 15.7237 29.4011 13.3215C29.4011 15.7237 27.3191 17.6714 24.7513 17.6714C22.1834 17.6714 20.1014 15.7237 20.1014 13.3215C20.1014 15.7237 18.0194 17.6714 15.4516 17.6714C12.8838 17.6714 10.8018 15.7237 10.8018 13.3215C10.7978 15.7079 8.69814 17.6714 6.15196 17.6714C3.60891 17.6714 1.50615 15.7104 1.50214 13.3215C1.49581 9.5203 1.49677 9.74837 1.5302 9.6001H38.6727C38.7117 9.77327 38.7007 9.53687 38.7007 13.3215Z" fill="#CAEFF2"></path>
    <path d="M33.3437 3.8062C25.2003 2.7577 16.9818 4.10253 10.3345 8.78839C9.58623 9.31586 8.67422 9.60011 7.73737 9.60011H1.53033C1.56882 9.42979 1.30209 10.0329 5.33597 1.3231C5.5396 0.884348 6.00218 0.600098 6.51286 0.600098H33.6903C34.2014 0.600098 34.6638 0.884048 34.867 1.3228L35.0457 1.70845C35.5464 2.78943 34.5913 3.96685 33.3437 3.8062Z" fill="white"></path>
    <path d="M37.418 20.325V33C37.418 34.6542 35.9795 36 34.2113 36H5.99165C4.22343 36 2.78487 34.6542 2.78487 33V20.325C2.78487 19.9937 3.07204 19.725 3.42623 19.725C3.78042 19.725 4.06758 19.9937 4.06758 20.325V33C4.06758 33.9925 4.93069 34.8 5.99165 34.8H12.9664V24.675C12.9664 23.0208 14.4049 21.675 16.1732 21.675H24.0297C25.798 21.675 27.2365 23.0208 27.2365 24.675V32.4C27.2365 32.7313 26.9494 33 26.5952 33C26.241 33 25.9538 32.7313 25.9538 32.4V24.675C25.9538 23.6825 25.0906 22.875 24.0297 22.875H16.1732C15.1123 22.875 14.2491 23.6825 14.2491 24.675V34.8H19.4601V25.35C19.4601 25.0187 19.7473 24.75 20.1014 24.75C20.4556 24.75 20.7428 25.0187 20.7428 25.35V34.8H34.2113C35.2721 34.8 36.1353 33.9925 36.1353 33V20.325C36.1353 19.9937 36.4225 19.725 36.7767 19.725C37.1309 19.725 37.418 19.9936 37.418 20.325ZM5.02962 9.6C5.02962 9.93135 5.31678 10.2 5.67097 10.2C40.5661 10.2 38.836 10.2584 39.0909 10.0754C39.2242 9.9795 39.3113 9.84112 39.3352 9.68303C39.3709 9.4419 39.6011 10.0349 35.1204 0.361425C35.0186 0.141975 34.7875 0 34.5318 0H5.67089C5.41531 0 5.18402 0.14205 5.08245 0.361425L0.913642 9.36143C0.839966 9.52058 0.86073 9.26798 0.86073 13.3224C0.86538 16.0513 3.23895 18.2714 6.15191 18.2714C8.15446 18.2714 9.90207 17.2222 10.8004 15.6797C12.8067 19.129 18.0914 19.1328 20.1014 15.682C22.1098 19.13 27.3921 19.1308 29.401 15.682C30.2987 17.2232 32.0464 18.2714 34.0508 18.2714C36.9684 18.2714 39.342 16.0509 39.342 13.3214C39.342 12.9901 39.0548 12.7214 38.7006 12.7214C38.3465 12.7214 38.0593 12.9901 38.0593 13.3214C38.0593 15.3892 36.2611 17.0714 34.0508 17.0714C31.8406 17.0714 30.0424 15.3892 30.0424 13.3214C30.0424 12.9901 29.7552 12.7214 29.401 12.7214C29.0468 12.7214 28.7597 12.9901 28.7597 13.3214C28.7597 15.3892 26.9615 17.0714 24.7512 17.0714C22.5409 17.0714 20.7427 15.3892 20.7427 13.3214C20.7427 12.9901 20.4556 12.7214 20.1014 12.7214C19.7472 12.7214 19.46 12.9901 19.46 13.3214C19.46 15.3892 17.6618 17.0714 15.4515 17.0714C13.2904 17.0714 11.4431 15.4466 11.4431 13.2914C11.4431 12.9601 11.1559 12.6914 10.8017 12.6914C10.4475 12.6914 10.1604 12.9601 10.1604 13.2914C10.1604 15.4284 8.32457 17.0714 6.15191 17.0714C3.94516 17.0714 2.14689 15.3887 2.14344 13.3214V9.72435L6.09202 1.2H34.1109L37.7238 9H5.67097C5.3167 9 5.02962 9.26858 5.02962 9.6Z" fill="#52C29D"></path>
  </symbol>
  <symbol fill="none" xmlns="http://www.w3.org/2000/svg" viewBox="0 0 200 36" id="Logo">
    <path d="M48.132 31C47.712 31 47.362 30.86 47.082 30.58C46.8253 30.3 46.697 29.9617 46.697 29.565V7.9C46.697 7.50333 46.8253 7.17667 47.082 6.92C47.362 6.64 47.7003 6.5 48.097 6.5H60.382C60.7787 6.5 61.117 6.62833 61.397 6.885C61.677 7.14167 61.817 7.46833 61.817 7.865C61.817 8.23833 61.677 8.55333 61.397 8.81C61.117 9.06667 60.7787 9.195 60.382 9.195H49.357L49.567 8.915V17.49L49.392 17.105H58.807C59.2037 17.105 59.542 17.245 59.822 17.525C60.102 17.7817 60.242 18.1083 60.242 18.505C60.242 18.855 60.102 19.17 59.822 19.45C59.542 19.7067 59.2037 19.835 58.807 19.835H49.322L49.567 19.52V29.565C49.567 29.9617 49.427 30.3 49.147 30.58C48.867 30.86 48.5287 31 48.132 31ZM67.0894 31C66.6928 31 66.3544 30.86 66.0744 30.58C65.8178 30.3 65.6894 29.9617 65.6894 29.565V14.305C65.6894 13.9083 65.8178 13.5817 66.0744 13.325C66.3544 13.045 66.6928 12.905 67.0894 12.905C67.5094 12.905 67.8478 13.045 68.1044 13.325C68.3611 13.5817 68.4894 13.9083 68.4894 14.305V18.925L68.0694 18.19C68.2094 17.4667 68.4544 16.7667 68.8044 16.09C69.1778 15.39 69.6444 14.7717 70.2044 14.235C70.7644 13.675 71.4061 13.2433 72.1294 12.94C72.8528 12.6133 73.6461 12.45 74.5094 12.45C75.0228 12.45 75.4894 12.5783 75.9094 12.835C76.3528 13.0683 76.5744 13.4067 76.5744 13.85C76.5744 14.34 76.4461 14.7017 76.1894 14.935C75.9328 15.1683 75.6411 15.285 75.3144 15.285C75.0111 15.285 74.7194 15.2267 74.4394 15.11C74.1594 14.97 73.8094 14.9 73.3894 14.9C72.8061 14.9 72.2228 15.0633 71.6394 15.39C71.0794 15.6933 70.5544 16.1367 70.0644 16.72C69.5978 17.3033 69.2128 17.9683 68.9094 18.715C68.6294 19.4383 68.4894 20.22 68.4894 21.06V29.565C68.4894 29.9617 68.3494 30.3 68.0694 30.58C67.8128 30.86 67.4861 31 67.0894 31ZM87.3161 31.35C85.4495 31.35 83.8161 30.9533 82.4161 30.16C81.0161 29.3667 79.9195 28.2817 79.1261 26.905C78.3561 25.505 77.9711 23.895 77.9711 22.075C77.9711 20.045 78.3678 18.3183 79.1611 16.895C79.9778 15.4483 81.0278 14.3517 82.3111 13.605C83.6178 12.835 84.9945 12.45 86.4411 12.45C87.5145 12.45 88.5528 12.6483 89.5561 13.045C90.5595 13.4417 91.4461 14.025 92.2161 14.795C92.9861 15.5417 93.6045 16.4517 94.0711 17.525C94.5378 18.575 94.7828 19.7533 94.8061 21.06C94.8061 21.4333 94.6661 21.7483 94.3861 22.005C94.1061 22.2617 93.7795 22.39 93.4061 22.39H79.5811L78.9511 19.975H92.4261L91.8661 20.465V19.695C91.7728 18.7383 91.4461 17.9217 90.8861 17.245C90.3495 16.545 89.6845 16.0083 88.8911 15.635C88.1211 15.2617 87.3045 15.075 86.4411 15.075C85.7411 15.075 85.0411 15.2033 84.3411 15.46C83.6645 15.6933 83.0461 16.09 82.4861 16.65C81.9495 17.1867 81.5061 17.8867 81.1561 18.75C80.8295 19.6133 80.6661 20.6517 80.6661 21.865C80.6661 23.2183 80.9345 24.4083 81.4711 25.435C82.0311 26.4617 82.8011 27.2783 83.7811 27.885C84.7611 28.4683 85.9045 28.76 87.2111 28.76C88.0278 28.76 88.7395 28.655 89.3461 28.445C89.9528 28.235 90.4778 27.9783 90.9211 27.675C91.3645 27.3483 91.7378 27.0217 92.0411 26.695C92.3445 26.485 92.6361 26.38 92.9161 26.38C93.2661 26.38 93.5461 26.4967 93.7561 26.73C93.9895 26.9633 94.1061 27.2433 94.1061 27.57C94.1061 27.9667 93.9195 28.3167 93.5461 28.62C92.8928 29.3433 92.0061 29.985 90.8861 30.545C89.7661 31.0817 88.5761 31.35 87.3161 31.35ZM107.38 31.35C105.513 31.35 103.88 30.9533 102.48 30.16C101.08 29.3667 99.983 28.2817 99.1896 26.905C98.4196 25.505 98.0346 23.895 98.0346 22.075C98.0346 20.045 98.4313 18.3183 99.2246 16.895C100.041 15.4483 101.091 14.3517 102.375 13.605C103.681 12.835 105.058 12.45 106.505 12.45C107.578 12.45 108.616 12.6483 109.62 13.045C110.623 13.4417 111.51 14.025 112.28 14.795C113.05 15.5417 113.668 16.4517 114.135 17.525C114.601 18.575 114.846 19.7533 114.87 21.06C114.87 21.4333 114.73 21.7483 114.45 22.005C114.17 22.2617 113.843 22.39 113.47 22.39H99.6446L99.0146 19.975H112.49L111.93 20.465V19.695C111.836 18.7383 111.51 17.9217 110.95 17.245C110.413 16.545 109.748 16.0083 108.955 15.635C108.185 15.2617 107.368 15.075 106.505 15.075C105.805 15.075 105.105 15.2033 104.405 15.46C103.728 15.6933 103.11 16.09 102.55 16.65C102.013 17.1867 101.57 17.8867 101.22 18.75C100.893 19.6133 100.73 20.6517 100.73 21.865C100.73 23.2183 100.998 24.4083 101.535 25.435C102.095 26.4617 102.865 27.2783 103.845 27.885C104.825 28.4683 105.968 28.76 107.275 28.76C108.091 28.76 108.803 28.655 109.41 28.445C110.016 28.235 110.541 27.9783 110.985 27.675C111.428 27.3483 111.801 27.0217 112.105 26.695C112.408 26.485 112.7 26.38 112.98 26.38C113.33 26.38 113.61 26.4967 113.82 26.73C114.053 26.9633 114.17 27.2433 114.17 27.57C114.17 27.9667 113.983 28.3167 113.61 28.62C112.956 29.3433 112.07 29.985 110.95 30.545C109.83 31.0817 108.64 31.35 107.38 31.35ZM127.828 12.625C129.368 12.625 130.581 12.9633 131.468 13.64C132.378 14.2933 133.02 15.18 133.393 16.3C133.79 17.3967 133.988 18.6217 133.988 19.975V29.565C133.988 29.9617 133.848 30.3 133.568 30.58C133.311 30.86 132.985 31 132.588 31C132.191 31 131.853 30.86 131.573 30.58C131.316 30.3 131.188 29.9617 131.188 29.565V19.975C131.188 19.0883 131.06 18.295 130.803 17.595C130.546 16.8717 130.115 16.3 129.508 15.88C128.925 15.4367 128.12 15.215 127.093 15.215C126.136 15.215 125.261 15.4367 124.468 15.88C123.675 16.3 123.045 16.8717 122.578 17.595C122.111 18.295 121.878 19.0883 121.878 19.975V29.565C121.878 29.9617 121.738 30.3 121.458 30.58C121.201 30.86 120.875 31 120.478 31C120.081 31 119.743 30.86 119.463 30.58C119.206 30.3 119.078 29.9617 119.078 29.565V6.5C119.078 6.10333 119.206 5.77667 119.463 5.52C119.743 5.24 120.081 5.1 120.478 5.1C120.898 5.1 121.236 5.24 121.493 5.52C121.75 5.77667 121.878 6.10333 121.878 6.5V16.965L121.178 17.735C121.295 17.1283 121.551 16.5217 121.948 15.915C122.345 15.285 122.846 14.725 123.453 14.235C124.06 13.745 124.736 13.36 125.483 13.08C126.23 12.7767 127.011 12.625 127.828 12.625ZM154.086 12.73C154.482 12.73 154.809 12.87 155.066 13.15C155.346 13.4067 155.486 13.7333 155.486 14.13V29.565C155.486 29.9617 155.346 30.3 155.066 30.58C154.809 30.86 154.482 31 154.086 31C153.666 31 153.327 30.86 153.071 30.58C152.814 30.3 152.686 29.9617 152.686 29.565V26.24L153.351 26.17C153.351 26.6833 153.176 27.2433 152.826 27.85C152.476 28.4567 151.997 29.0283 151.391 29.565C150.784 30.0783 150.061 30.51 149.221 30.86C148.404 31.1867 147.517 31.35 146.561 31.35C144.974 31.35 143.551 30.9417 142.291 30.125C141.031 29.285 140.027 28.1533 139.281 26.73C138.557 25.3067 138.196 23.685 138.196 21.865C138.196 20.0217 138.557 18.4 139.281 17C140.027 15.5767 141.031 14.4683 142.291 13.675C143.551 12.8583 144.951 12.45 146.491 12.45C147.494 12.45 148.427 12.6133 149.291 12.94C150.154 13.2667 150.901 13.71 151.531 14.27C152.184 14.83 152.686 15.4483 153.036 16.125C153.409 16.8017 153.596 17.4783 153.596 18.155L152.686 17.945V14.13C152.686 13.7333 152.814 13.4067 153.071 13.15C153.327 12.87 153.666 12.73 154.086 12.73ZM146.876 28.76C148.042 28.76 149.069 28.4567 149.956 27.85C150.866 27.2433 151.566 26.4267 152.056 25.4C152.569 24.35 152.826 23.1717 152.826 21.865C152.826 20.5817 152.569 19.4267 152.056 18.4C151.566 17.35 150.866 16.5333 149.956 15.95C149.069 15.3433 148.042 15.04 146.876 15.04C145.732 15.04 144.706 15.3317 143.796 15.915C142.909 16.4983 142.209 17.3033 141.696 18.33C141.182 19.3567 140.926 20.535 140.926 21.865C140.926 23.1717 141.171 24.35 141.661 25.4C142.174 26.4267 142.874 27.2433 143.761 27.85C144.671 28.4567 145.709 28.76 146.876 28.76ZM169.67 12.45C171.256 12.45 172.505 12.7767 173.415 13.43C174.325 14.0833 174.966 14.9583 175.34 16.055C175.736 17.1517 175.935 18.3767 175.935 19.73V29.565C175.935 29.9617 175.795 30.3 175.515 30.58C175.258 30.86 174.931 31 174.535 31C174.138 31 173.8 30.86 173.52 30.58C173.263 30.3 173.135 29.9617 173.135 29.565V19.8C173.135 18.9133 172.995 18.12 172.715 17.42C172.458 16.6967 172.015 16.125 171.385 15.705C170.778 15.2617 169.938 15.04 168.865 15.04C167.885 15.04 166.986 15.2617 166.17 15.705C165.353 16.125 164.7 16.6967 164.21 17.42C163.72 18.12 163.475 18.9133 163.475 19.8V29.565C163.475 29.9617 163.335 30.3 163.055 30.58C162.798 30.86 162.471 31 162.075 31C161.678 31 161.34 30.86 161.06 30.58C160.803 30.3 160.675 29.9617 160.675 29.565V14.305C160.675 13.9083 160.803 13.5817 161.06 13.325C161.34 13.045 161.678 12.905 162.075 12.905C162.495 12.905 162.833 13.045 163.09 13.325C163.346 13.5817 163.475 13.9083 163.475 14.305V16.79L162.775 17.56C162.891 16.9533 163.16 16.3467 163.58 15.74C164 15.11 164.525 14.55 165.155 14.06C165.785 13.57 166.485 13.185 167.255 12.905C168.025 12.6017 168.83 12.45 169.67 12.45ZM196.024 5.1C196.421 5.1 196.748 5.24 197.004 5.52C197.284 5.77667 197.424 6.10333 197.424 6.5V29.565C197.424 29.9617 197.284 30.3 197.004 30.58C196.748 30.86 196.421 31 196.024 31C195.604 31 195.266 30.86 195.009 30.58C194.753 30.3 194.624 29.9617 194.624 29.565V26.24L195.289 25.995C195.289 26.555 195.114 27.15 194.764 27.78C194.414 28.3867 193.936 28.9583 193.329 29.495C192.723 30.0317 191.999 30.475 191.159 30.825C190.343 31.175 189.456 31.35 188.499 31.35C186.936 31.35 185.513 30.9417 184.229 30.125C182.969 29.3083 181.966 28.1883 181.219 26.765C180.496 25.3417 180.134 23.72 180.134 21.9C180.134 20.0567 180.496 18.4233 181.219 17C181.966 15.5767 182.969 14.4683 184.229 13.675C185.489 12.8583 186.889 12.45 188.429 12.45C189.409 12.45 190.331 12.6133 191.194 12.94C192.058 13.2667 192.804 13.71 193.434 14.27C194.088 14.83 194.601 15.4483 194.974 16.125C195.348 16.8017 195.534 17.4783 195.534 18.155L194.624 17.945V6.5C194.624 6.10333 194.753 5.77667 195.009 5.52C195.266 5.24 195.604 5.1 196.024 5.1ZM188.814 28.76C189.981 28.76 191.008 28.4683 191.894 27.885C192.804 27.2783 193.504 26.4617 193.994 25.435C194.508 24.385 194.764 23.2067 194.764 21.9C194.764 20.57 194.508 19.3917 193.994 18.365C193.504 17.3383 192.804 16.5333 191.894 15.95C191.008 15.3433 189.981 15.04 188.814 15.04C187.671 15.04 186.644 15.3433 185.734 15.95C184.848 16.5333 184.148 17.3383 183.634 18.365C183.121 19.3917 182.864 20.57 182.864 21.9C182.864 23.1833 183.121 24.35 183.634 25.4C184.148 26.4267 184.848 27.2433 185.734 27.85C186.644 28.4567 187.671 28.76 188.814 28.76Z" fill="#16133D"></path>
    <path d="M23.2972 2.5C27.8569 2.5 31.5638 6.2184 31.5638 10.7871C31.5638 13.8485 29.9182 16.5644 27.3666 18C29.9182 19.4356 31.5638 22.1515 31.5638 25.2129C31.5638 29.7816 27.8569 33.5 23.2972 33.5C20.2408 33.4999 17.4911 31.7932 16.0638 29.2158C14.6365 31.7932 11.8867 33.4999 8.83044 33.5C4.27077 33.5 0.563843 29.7816 0.563843 25.2129C0.563843 22.1518 2.2089 19.4357 4.76013 18C2.2089 16.5643 0.563843 13.8482 0.563843 10.7871C0.563843 6.2184 4.27077 2.5 8.83044 2.5C11.8864 2.50011 14.6364 4.20623 16.0638 6.7832C17.4912 4.2062 20.2411 2.50011 23.2972 2.5ZM23.2972 4.25C20.2318 4.25014 17.5475 6.4331 16.9193 9.43848C16.835 9.84322 16.4784 10.1348 16.0638 10.1348C15.6494 10.1347 15.2927 9.84319 15.2084 9.43848C14.58 6.4331 11.8959 4.25014 8.83044 4.25C5.23793 4.25 2.31189 7.18162 2.31189 10.7871C2.31189 13.8429 4.38363 16.4559 7.35095 17.1475C7.74805 17.2397 8.02673 17.5948 8.02673 18C8.02673 18.4055 7.74746 18.7595 7.34998 18.8516C4.38303 19.5434 2.31189 22.1573 2.31189 25.2129C2.31189 28.8184 5.23793 31.75 8.83044 31.75C11.8959 31.7499 14.58 29.5669 15.2084 26.5615L15.2523 26.415C15.3828 26.0883 15.7013 25.8653 16.0638 25.8652C16.4264 25.8652 16.7449 26.0883 16.8754 26.415L16.9193 26.5615L16.9838 26.8408C17.7152 29.7013 20.3275 31.7499 23.2972 31.75C26.8898 31.75 29.8158 28.8184 29.8158 25.2129C29.8158 22.1571 27.7441 19.5441 24.7767 18.8525C24.3796 18.7603 24.101 18.4052 24.101 18C24.101 17.5948 24.3796 17.2397 24.7767 17.1475C27.7441 16.4559 29.8158 13.8429 29.8158 10.7871C29.8158 7.18162 26.8898 4.25 23.2972 4.25Z" fill="#3DB370" stroke="#3DB370"></path>
  </symbol>
  <symbol fill="none" xmlns="http://www.w3.org/2000/svg" viewBox="0 0 200 36" id="Logo-white">
    <path d="M49.952 9.22V16.465H58.562C59.052 16.465 59.4487 16.6167 59.752 16.92C60.0787 17.2233 60.242 17.62 60.242 18.11C60.242 18.53 60.0787 18.8917 59.752 19.195C59.4487 19.4983 59.052 19.65 58.562 19.65H49.952V28.82C49.952 29.2867 49.777 29.6833 49.427 30.01C49.1003 30.3367 48.7037 30.5 48.237 30.5C47.747 30.5 47.3387 30.3367 47.012 30.01C46.6853 29.6833 46.522 29.2867 46.522 28.82V7.68C46.522 7.21333 46.6853 6.81666 47.012 6.49C47.3387 6.16333 47.7353 6 48.202 6H60.137C60.627 6 61.0237 6.15167 61.327 6.455C61.6537 6.75833 61.817 7.155 61.817 7.645C61.817 8.065 61.6537 8.43833 61.327 8.765C61.0003 9.06833 60.6037 9.22 60.137 9.22H49.952ZM74.6852 11.74C75.2919 11.74 75.8169 11.9033 76.2602 12.23C76.7036 12.5333 76.9252 12.9183 76.9252 13.385C76.9252 13.945 76.7736 14.3767 76.4702 14.68C76.1902 14.96 75.8402 15.1 75.4202 15.1C75.2102 15.1 74.8952 15.03 74.4752 14.89C73.9852 14.7267 73.6002 14.645 73.3202 14.645C72.5969 14.645 71.8852 14.9017 71.1852 15.415C70.5086 15.905 69.9486 16.5933 69.5052 17.48C69.0852 18.3433 68.8752 19.3117 68.8752 20.385V28.82C68.8752 29.2867 68.7119 29.6833 68.3852 30.01C68.0819 30.3367 67.6852 30.5 67.1952 30.5C66.7052 30.5 66.3086 30.3483 66.0052 30.045C65.7019 29.7183 65.5502 29.31 65.5502 28.82V13.84C65.5502 13.3733 65.7019 12.9767 66.0052 12.65C66.3319 12.3233 66.7286 12.16 67.1952 12.16C67.6852 12.16 68.0819 12.3233 68.3852 12.65C68.7119 12.9767 68.8752 13.3733 68.8752 13.84V15.625C69.3886 14.4817 70.1586 13.56 71.1852 12.86C72.2119 12.1367 73.3786 11.7633 74.6852 11.74ZM95.3221 20.63C95.2988 21.05 95.1238 21.4117 94.7971 21.715C94.4705 21.995 94.0855 22.135 93.6421 22.135H81.3221C81.4855 23.8383 82.1271 25.2033 83.2471 26.23C84.3905 27.2567 85.7788 27.77 87.4121 27.77C88.5321 27.77 89.4421 27.6067 90.1421 27.28C90.8421 26.9533 91.4605 26.5333 91.9971 26.02C92.3471 25.81 92.6855 25.705 93.0121 25.705C93.4088 25.705 93.7355 25.845 93.9921 26.125C94.2721 26.405 94.4121 26.7317 94.4121 27.105C94.4121 27.595 94.1788 28.0383 93.7121 28.435C93.0355 29.1117 92.1371 29.6833 91.0171 30.15C89.8971 30.6167 88.7538 30.85 87.5871 30.85C85.6971 30.85 84.0288 30.4533 82.5821 29.66C81.1588 28.8667 80.0505 27.7583 79.2571 26.335C78.4871 24.9117 78.1021 23.3017 78.1021 21.505C78.1021 19.545 78.4988 17.83 79.2921 16.36C80.1088 14.8667 81.1705 13.7233 82.4771 12.93C83.8071 12.1367 85.2305 11.74 86.7471 11.74C88.2405 11.74 89.6405 12.125 90.9471 12.895C92.2538 13.665 93.3038 14.7267 94.0971 16.08C94.8905 17.4333 95.2988 18.95 95.3221 20.63ZM86.7471 14.82C85.4405 14.82 84.3088 15.1933 83.3521 15.94C82.3955 16.6633 81.7655 17.795 81.4621 19.335H91.7871V19.055C91.6705 17.8183 91.1105 16.8033 90.1071 16.01C89.1271 15.2167 88.0071 14.82 86.7471 14.82ZM115.283 20.63C115.26 21.05 115.085 21.4117 114.758 21.715C114.431 21.995 114.046 22.135 113.603 22.135H101.283C101.446 23.8383 102.088 25.2033 103.208 26.23C104.351 27.2567 105.74 27.77 107.373 27.77C108.493 27.77 109.403 27.6067 110.103 27.28C110.803 26.9533 111.421 26.5333 111.958 26.02C112.308 25.81 112.646 25.705 112.973 25.705C113.37 25.705 113.696 25.845 113.953 26.125C114.233 26.405 114.373 26.7317 114.373 27.105C114.373 27.595 114.14 28.0383 113.673 28.435C112.996 29.1117 112.098 29.6833 110.978 30.15C109.858 30.6167 108.715 30.85 107.548 30.85C105.658 30.85 103.99 30.4533 102.543 29.66C101.12 28.8667 100.011 27.7583 99.2181 26.335C98.4481 24.9117 98.0631 23.3017 98.0631 21.505C98.0631 19.545 98.4597 17.83 99.2531 16.36C100.07 14.8667 101.131 13.7233 102.438 12.93C103.768 12.1367 105.191 11.74 106.708 11.74C108.201 11.74 109.601 12.125 110.908 12.895C112.215 13.665 113.265 14.7267 114.058 16.08C114.851 17.4333 115.26 18.95 115.283 20.63ZM106.708 14.82C105.401 14.82 104.27 15.1933 103.313 15.94C102.356 16.6633 101.726 17.795 101.423 19.335H111.748V19.055C111.631 17.8183 111.071 16.8033 110.068 16.01C109.088 15.2167 107.968 14.82 106.708 14.82ZM128.279 11.845C132.386 11.845 134.439 14.3883 134.439 19.475V28.82C134.439 29.2867 134.276 29.6833 133.949 30.01C133.646 30.3367 133.249 30.5 132.759 30.5C132.292 30.5 131.896 30.3367 131.569 30.01C131.266 29.6833 131.114 29.2867 131.114 28.82V19.475C131.114 16.4417 129.831 14.925 127.264 14.925C125.887 14.925 124.744 15.3683 123.834 16.255C122.924 17.1183 122.469 18.1917 122.469 19.475V28.82C122.469 29.2867 122.306 29.6833 121.979 30.01C121.676 30.3367 121.279 30.5 120.789 30.5C120.299 30.5 119.902 30.3483 119.599 30.045C119.296 29.7183 119.144 29.31 119.144 28.82V6.28C119.144 5.81333 119.296 5.41667 119.599 5.09C119.926 4.76333 120.322 4.6 120.789 4.6C121.279 4.6 121.676 4.76333 121.979 5.09C122.306 5.41667 122.469 5.81333 122.469 6.28V15.135C123.052 14.225 123.869 13.455 124.919 12.825C125.969 12.1717 127.089 11.845 128.279 11.845ZM154.288 11.915C154.778 11.915 155.174 12.0783 155.478 12.405C155.804 12.7083 155.968 13.1167 155.968 13.63V28.82C155.968 29.2867 155.804 29.6833 155.478 30.01C155.174 30.3367 154.778 30.5 154.288 30.5C153.798 30.5 153.401 30.3483 153.098 30.045C152.794 29.7183 152.643 29.31 152.643 28.82V27.91C152.036 28.7267 151.208 29.4267 150.158 30.01C149.108 30.57 147.976 30.85 146.763 30.85C145.176 30.85 143.729 30.4417 142.423 29.625C141.139 28.8083 140.124 27.6767 139.378 26.23C138.654 24.76 138.293 23.115 138.293 21.295C138.293 19.475 138.654 17.8417 139.378 16.395C140.124 14.925 141.139 13.7817 142.423 12.965C143.706 12.1483 145.118 11.74 146.658 11.74C147.894 11.74 149.038 11.9967 150.088 12.51C151.161 13.0233 152.013 13.6767 152.643 14.47V13.63C152.643 13.14 152.794 12.7317 153.098 12.405C153.401 12.0783 153.798 11.915 154.288 11.915ZM147.148 27.77C148.244 27.77 149.213 27.49 150.053 26.93C150.916 26.37 151.581 25.6 152.048 24.62C152.538 23.64 152.783 22.5317 152.783 21.295C152.783 20.0817 152.538 18.985 152.048 18.005C151.581 17.025 150.916 16.255 150.053 15.695C149.213 15.1117 148.244 14.82 147.148 14.82C146.051 14.82 145.071 15.1 144.208 15.66C143.368 16.22 142.703 16.99 142.213 17.97C141.746 18.95 141.513 20.0583 141.513 21.295C141.513 22.5317 141.746 23.64 142.213 24.62C142.703 25.6 143.368 26.37 144.208 26.93C145.071 27.49 146.051 27.77 147.148 27.77ZM170.257 11.74C174.457 11.74 176.557 14.26 176.557 19.3V28.82C176.557 29.2867 176.393 29.6833 176.067 30.01C175.763 30.3367 175.367 30.5 174.877 30.5C174.41 30.5 174.013 30.3367 173.687 30.01C173.383 29.6833 173.232 29.2867 173.232 28.82V19.335C173.232 17.9583 172.917 16.8617 172.287 16.045C171.657 15.2283 170.63 14.82 169.207 14.82C168.273 14.82 167.422 15.03 166.652 15.45C165.905 15.8467 165.31 16.395 164.867 17.095C164.447 17.7717 164.237 18.5183 164.237 19.335V28.82C164.237 29.2867 164.073 29.6833 163.747 30.01C163.443 30.3367 163.047 30.5 162.557 30.5C162.067 30.5 161.67 30.3483 161.367 30.045C161.063 29.7183 160.912 29.31 160.912 28.82V13.84C160.912 13.3733 161.063 12.9767 161.367 12.65C161.693 12.3233 162.09 12.16 162.557 12.16C163.047 12.16 163.443 12.3233 163.747 12.65C164.073 12.9767 164.237 13.3733 164.237 13.84V15.065C164.843 14.1317 165.683 13.35 166.757 12.72C167.853 12.0667 169.02 11.74 170.257 11.74ZM196.397 4.6C196.887 4.6 197.284 4.76333 197.587 5.09C197.914 5.39333 198.077 5.79 198.077 6.28V28.82C198.077 29.2867 197.914 29.6833 197.587 30.01C197.284 30.3367 196.887 30.5 196.397 30.5C195.907 30.5 195.51 30.3483 195.207 30.045C194.904 29.7183 194.752 29.31 194.752 28.82V27.84C194.169 28.68 193.34 29.3917 192.267 29.975C191.217 30.5583 190.085 30.85 188.872 30.85C187.285 30.85 185.85 30.4417 184.567 29.625C183.284 28.8083 182.269 27.6767 181.522 26.23C180.775 24.76 180.402 23.115 180.402 21.295C180.402 19.475 180.764 17.8417 181.487 16.395C182.234 14.925 183.249 13.7817 184.532 12.965C185.815 12.1483 187.227 11.74 188.767 11.74C190.004 11.74 191.147 11.9967 192.197 12.51C193.247 13.0233 194.099 13.6883 194.752 14.505V6.28C194.752 5.79 194.904 5.39333 195.207 5.09C195.51 4.76333 195.907 4.6 196.397 4.6ZM189.257 27.77C190.354 27.77 191.322 27.49 192.162 26.93C193.025 26.37 193.69 25.6 194.157 24.62C194.647 23.64 194.892 22.5317 194.892 21.295C194.892 20.0817 194.647 18.985 194.157 18.005C193.69 17.0017 193.025 16.22 192.162 15.66C191.322 15.1 190.354 14.82 189.257 14.82C188.16 14.82 187.18 15.1 186.317 15.66C185.477 16.22 184.812 17.0017 184.322 18.005C183.855 18.985 183.622 20.0817 183.622 21.295C183.622 22.5317 183.855 23.64 184.322 24.62C184.812 25.6 185.477 26.37 186.317 26.93C187.18 27.49 188.16 27.77 189.257 27.77Z" fill="white"/>
    <path d="M23.2972 2C27.8569 2 31.5638 5.7184 31.5638 10.2871C31.5638 13.3485 29.9182 16.0644 27.3666 17.5C29.9182 18.9356 31.5638 21.6515 31.5638 24.7129C31.5638 29.2816 27.8569 33 23.2972 33C20.2408 32.9999 17.4911 31.2932 16.0638 28.7158C14.6365 31.2932 11.8867 32.9999 8.83044 33C4.27077 33 0.563843 29.2816 0.563843 24.7129C0.563843 21.6518 2.2089 18.9357 4.76013 17.5C2.2089 16.0643 0.563843 13.3482 0.563843 10.2871C0.563843 5.7184 4.27077 2 8.83044 2C11.8864 2.00011 14.6364 3.70623 16.0638 6.2832C17.4912 3.7062 20.2411 2.00011 23.2972 2ZM23.2972 3.75C20.2318 3.75014 17.5475 5.9331 16.9193 8.93848C16.835 9.34322 16.4784 9.63477 16.0638 9.63477C15.6494 9.63472 15.2927 9.34319 15.2084 8.93848C14.58 5.9331 11.8959 3.75014 8.83044 3.75C5.23793 3.75 2.31189 6.68162 2.31189 10.2871C2.31189 13.3429 4.38363 15.9559 7.35095 16.6475C7.74805 16.7397 8.02673 17.0948 8.02673 17.5C8.02673 17.9055 7.74746 18.2595 7.34998 18.3516C4.38303 19.0434 2.31189 21.6573 2.31189 24.7129C2.31189 28.3184 5.23793 31.25 8.83044 31.25C11.8959 31.2499 14.58 29.0669 15.2084 26.0615L15.2523 25.915C15.3828 25.5883 15.7013 25.3653 16.0638 25.3652C16.4264 25.3652 16.7449 25.5883 16.8754 25.915L16.9193 26.0615L16.9838 26.3408C17.7152 29.2013 20.3275 31.2499 23.2972 31.25C26.8898 31.25 29.8158 28.3184 29.8158 24.7129C29.8158 21.6571 27.7441 19.0441 24.7767 18.3525C24.3796 18.2603 24.101 17.9052 24.101 17.5C24.101 17.0948 24.3796 16.7397 24.7767 16.6475C27.7441 15.9559 29.8158 13.3429 29.8158 10.2871C29.8158 6.68162 26.8898 3.75 23.2972 3.75Z" fill="#3DB370" stroke="#3DB370"/>
  </symbol>
  <symbol fill="none" xmlns="http://www.w3.org/2000/svg" viewBox="0 0 40 36" id="megaphone-green">
    <path d="M34.2303 17.0039C35.0267 18.2942 34.0717 19.9147 32.4798 19.9722C26.6672 20.1851 20.7405 21.5432 15.1528 24.2169L13.3051 25.2144C13.3051 25.2222 13.2796 25.1736 17.7776 32.4919C18.1904 33.1615 17.9454 34.0168 17.2304 34.4037L15.7731 35.1906C15.0581 35.5767 14.143 35.3476 13.7303 34.6779L9.24365 27.4082L8.51539 27.8021C7.08461 28.5742 5.25525 28.1159 4.429 26.7774L1.06423 21.3255C0.238812 19.987 0.728747 18.2756 2.15952 17.5026L8.79689 13.9175C13.8694 10.8478 18.1678 6.78337 21.3899 2.00218C22.2394 0.74136 24.2166 0.777871 25.0129 2.06821L27.8919 6.73396C29.546 5.84058 31.6619 6.37117 32.6169 7.91865C33.5718 9.46613 33.0047 11.4448 31.3505 12.3381L34.2303 17.0039Z" fill="#E1F4F5"></path>
    <path d="M32.6168 7.91887C33.5718 9.46636 33.0046 11.445 31.3505 12.3384L27.8918 6.73416C29.546 5.84078 31.6619 6.37137 32.6168 7.91887Z" fill="#E1F4F5"></path>
    <path d="M25.0129 2.06818C25.4102 2.7125 25.3847 3.5118 24.9451 4.13157C21.3983 9.13111 16.6444 13.6487 10.8305 17.1677L3.05386 21.3681C2.51991 21.6571 2.09724 22.0572 1.80162 22.5194L1.06423 21.3254C0.238812 19.9869 0.728747 18.2755 2.15952 17.5026L8.79689 13.9174C13.8694 10.8478 18.1678 6.78333 21.3899 2.00215C22.2394 0.741332 24.2165 0.777921 25.0129 2.06818Z" fill="#F4FEFF"></path>
    <path d="M8.79689 13.9177L15.1528 24.2171C13.8791 24.9047 9.78722 27.1145 8.51538 27.8023C7.08461 28.5745 5.25524 28.1161 4.429 26.7776L1.06423 21.3257C0.238812 19.9872 0.728747 18.2758 2.15952 17.5029L8.79689 13.9177Z" fill="#CAEFF2"></path>
    <path d="M10.8097 17.1794C2.36409 21.7406 2.92378 21.4233 2.65133 21.6216C2.13823 21.9951 1.38937 21.852 1.06411 21.3254C0.23869 19.9869 0.728625 18.2756 2.1594 17.5026L8.79677 13.9175L10.8097 17.1794Z" fill="#E1F4F5"></path>
    <path d="M14.515 27.183C12.152 28.463 13.8906 27.521 10.4577 29.3744L9.24365 27.4083L13.3051 25.2153L14.515 27.183Z" fill="#CAEFF2"></path>
    <path d="M32.41 11.4495C32.136 11.8014 31.7798 12.1067 31.3504 12.3382L27.8918 6.73412C28.3212 6.50185 28.782 6.36668 29.2446 6.32007C29.4186 6.60221 32.2582 11.2035 32.41 11.4495Z" fill="#CAEFF2"></path>
    <path d="M32.231 12.5215C34.8236 10.5404 33.928 6.62262 30.6884 5.81066C29.8419 5.5985 28.9656 5.64263 28.1623 5.92889L25.5882 1.75793C24.5407 0.0605986 21.9428 0.0156194 20.8274 1.67053C17.6614 6.36843 13.4435 10.3641 8.43582 13.3962C8.15067 13.5685 8.04496 13.9246 8.21369 14.2144C8.24076 14.2608 12.5045 21.1688 12.5328 21.2145C12.7161 21.5116 13.1222 21.6137 13.4402 21.442C13.7579 21.2704 13.8668 20.8903 13.6834 20.593L9.68499 14.1141C14.4599 11.1279 18.6887 7.17449 21.9514 2.33342C22.5349 1.46747 23.8913 1.49435 24.4375 2.37941L33.6546 17.3144C34.2015 18.2006 33.5458 19.3118 32.4541 19.3516C26.3293 19.5748 20.3328 21.0403 14.8502 23.6636C14.8269 23.6747 8.61087 27.0326 8.1828 27.2638C7.07165 27.864 5.64585 27.5066 5.00445 26.4671L1.6396 21.0146C0.998115 19.9752 1.38018 18.6414 2.49125 18.0412L6.54102 15.8539C6.85873 15.6823 6.9676 15.3022 6.78416 15.0049C6.60073 14.7076 6.19433 14.6059 5.8767 14.7775L1.82694 16.9648C0.0814388 17.9076 -0.518773 20.0031 0.488998 21.6361L3.85394 27.0885C4.86179 28.7216 7.10179 29.2829 8.84729 28.3401L9.0005 28.2574L13.1549 34.989C13.7516 35.9559 15.0711 36.2871 16.1053 35.7286L17.5624 34.9416C18.5962 34.3832 18.9498 33.1487 18.3529 32.1815L15.4086 27.4106C15.2252 27.1134 14.8188 27.0116 14.5011 27.1832C14.1834 27.3548 14.0746 27.7349 14.258 28.0321L17.2023 32.803C17.432 33.1751 17.296 33.6503 16.8981 33.8651L15.441 34.6522C15.0431 34.867 14.5353 34.7397 14.3056 34.3675L10.1512 27.6359L15.4703 24.7629C20.6753 22.275 26.4658 20.8136 32.5059 20.5935C34.5992 20.5171 35.8512 18.3873 34.8052 16.6928L32.231 12.5215ZM32.0412 8.22914C32.6971 9.29186 32.4615 10.6106 31.5536 11.4239L28.8395 7.02596C30.0293 6.69945 31.3748 7.14924 32.0412 8.22914ZM38.5387 5.46613L36.8199 6.39454C36.5019 6.56622 36.0958 6.46422 35.9124 6.16708C35.7289 5.86985 35.8379 5.48974 36.1556 5.31814L37.8744 4.38973C38.1924 4.21805 38.5985 4.32005 38.7819 4.61719C38.9653 4.91441 38.8565 5.29452 38.5387 5.46613ZM31.1467 1.92402L31.5659 0.460752C31.6609 0.129194 32.0249 -0.0674254 32.3796 0.0212904C32.734 0.110162 32.9443 0.450964 32.8493 0.782444L32.4301 2.24571C32.3353 2.57641 31.972 2.77404 31.6164 2.68517C31.2621 2.5963 31.0518 2.25558 31.1467 1.92402ZM39.8353 12.1022C39.7557 12.3798 39.4873 12.5629 39.1939 12.5629C39.0737 12.5629 39.1578 12.5757 37.4574 12.1495C37.103 12.0606 36.8927 11.7199 36.9876 11.3883C37.0826 11.0568 37.4469 10.8602 37.8013 10.9489L39.3655 11.3409C39.7198 11.4298 39.9302 11.7706 39.8353 12.1022Z" fill="#52C29D"></path>
  </symbol>
  <symbol fill="none" xmlns="http://www.w3.org/2000/svg" viewBox="0 0 40 36" id="megaphone-blue">
    <path d="M34.2303 17.0039C35.0267 18.2942 34.0717 19.9147 32.4798 19.9722C26.6672 20.1851 20.7405 21.5432 15.1528 24.2169L13.3051 25.2144C13.3051 25.2222 13.2796 25.1736 17.7776 32.4919C18.1904 33.1615 17.9454 34.0168 17.2304 34.4037L15.7731 35.1906C15.0581 35.5767 14.143 35.3476 13.7303 34.6779L9.24365 27.4082L8.51539 27.8021C7.08461 28.5742 5.25525 28.1159 4.429 26.7774L1.06423 21.3255C0.238812 19.987 0.728747 18.2756 2.15952 17.5026L8.79689 13.9175C13.8694 10.8478 18.1678 6.78337 21.3899 2.00218C22.2394 0.74136 24.2166 0.777871 25.0129 2.06821L27.8919 6.73396C29.546 5.84058 31.6619 6.37117 32.6169 7.91865C33.5718 9.46613 33.0047 11.4448 31.3505 12.3381L34.2303 17.0039Z" fill="#D1E7FF"></path>
    <path d="M32.6168 7.91887C33.5718 9.46636 33.0046 11.445 31.3505 12.3384L27.8918 6.73416C29.546 5.84078 31.6619 6.37137 32.6168 7.91887Z" fill="#D1E7FF"></path>
    <path d="M25.0129 2.06818C25.4102 2.7125 25.3847 3.5118 24.9451 4.13157C21.3983 9.13111 16.6444 13.6487 10.8305 17.1677L3.05386 21.3681C2.51991 21.6571 2.09724 22.0572 1.80162 22.5194L1.06423 21.3254C0.238812 19.9869 0.728747 18.2755 2.15952 17.5026L8.79689 13.9174C13.8694 10.8478 18.1678 6.78333 21.3899 2.00215C22.2394 0.741332 24.2165 0.777921 25.0129 2.06818Z" fill="#E8F3FF"></path>
    <path d="M8.79689 13.9177L15.1528 24.2171C13.8791 24.9047 9.78722 27.1145 8.51538 27.8023C7.08461 28.5745 5.25524 28.1161 4.429 26.7776L1.06423 21.3257C0.238812 19.9872 0.728747 18.2758 2.15952 17.5029L8.79689 13.9177Z" fill="#B9DCFF"></path>
    <path d="M10.8097 17.1794C2.36409 21.7406 2.92378 21.4233 2.65133 21.6216C2.13823 21.9951 1.38937 21.852 1.06411 21.3254C0.23869 19.9869 0.728625 18.2756 2.1594 17.5026L8.79677 13.9175L10.8097 17.1794Z" fill="#D1E7FF"></path>
    <path d="M14.515 27.183C12.152 28.463 13.8906 27.521 10.4577 29.3744L9.24365 27.4083L13.3051 25.2153L14.515 27.183Z" fill="#B9DCFF"></path>
    <path d="M32.41 11.4495C32.136 11.8014 31.7798 12.1067 31.3504 12.3382L27.8918 6.73412C28.3212 6.50185 28.782 6.36668 29.2446 6.32007C29.4186 6.60221 32.2582 11.2035 32.41 11.4495Z" fill="#B9DCFF"></path>
    <path d="M32.231 12.5215C34.8236 10.5404 33.928 6.62262 30.6884 5.81066C29.8419 5.5985 28.9656 5.64263 28.1623 5.92889L25.5882 1.75793C24.5407 0.0605986 21.9428 0.0156194 20.8274 1.67053C17.6614 6.36843 13.4435 10.3641 8.43582 13.3962C8.15067 13.5685 8.04496 13.9246 8.21369 14.2144C8.24076 14.2608 12.5045 21.1688 12.5328 21.2145C12.7161 21.5116 13.1222 21.6137 13.4402 21.442C13.7579 21.2704 13.8668 20.8903 13.6834 20.593L9.68499 14.1141C14.4599 11.1279 18.6887 7.17449 21.9514 2.33342C22.5349 1.46747 23.8913 1.49435 24.4375 2.37941L33.6546 17.3144C34.2015 18.2006 33.5458 19.3118 32.4541 19.3516C26.3293 19.5748 20.3328 21.0403 14.8502 23.6636C14.8269 23.6747 8.61087 27.0326 8.1828 27.2638C7.07165 27.864 5.64585 27.5066 5.00445 26.4671L1.6396 21.0146C0.998115 19.9752 1.38018 18.6414 2.49125 18.0412L6.54102 15.8539C6.85873 15.6823 6.9676 15.3022 6.78416 15.0049C6.60073 14.7076 6.19433 14.6059 5.8767 14.7775L1.82694 16.9648C0.0814388 17.9076 -0.518773 20.0031 0.488998 21.6361L3.85394 27.0885C4.86179 28.7216 7.10179 29.2829 8.84729 28.3401L9.0005 28.2574L13.1549 34.989C13.7516 35.9559 15.0711 36.2871 16.1053 35.7286L17.5624 34.9416C18.5962 34.3832 18.9498 33.1487 18.3529 32.1815L15.4086 27.4106C15.2252 27.1134 14.8188 27.0116 14.5011 27.1832C14.1834 27.3548 14.0746 27.7349 14.258 28.0321L17.2023 32.803C17.432 33.1751 17.296 33.6503 16.8981 33.8651L15.441 34.6522C15.0431 34.867 14.5353 34.7397 14.3056 34.3675L10.1512 27.6359L15.4703 24.7629C20.6753 22.275 26.4658 20.8136 32.5059 20.5935C34.5992 20.5171 35.8512 18.3873 34.8052 16.6928L32.231 12.5215ZM32.0412 8.22914C32.6971 9.29186 32.4615 10.6106 31.5536 11.4239L28.8395 7.02596C30.0293 6.69945 31.3748 7.14924 32.0412 8.22914ZM38.5387 5.46613L36.8199 6.39454C36.5019 6.56622 36.0958 6.46422 35.9124 6.16708C35.7289 5.86985 35.8379 5.48974 36.1556 5.31814L37.8744 4.38973C38.1924 4.21805 38.5985 4.32005 38.7819 4.61719C38.9653 4.91441 38.8565 5.29452 38.5387 5.46613ZM31.1467 1.92402L31.5659 0.460752C31.6609 0.129194 32.0249 -0.0674254 32.3796 0.0212904C32.734 0.110162 32.9443 0.450964 32.8493 0.782444L32.4301 2.24571C32.3353 2.57641 31.972 2.77404 31.6164 2.68517C31.2621 2.5963 31.0518 2.25558 31.1467 1.92402ZM39.8353 12.1022C39.7557 12.3798 39.4873 12.5629 39.1939 12.5629C39.0737 12.5629 39.1578 12.5757 37.4574 12.1495C37.103 12.0606 36.8927 11.7199 36.9876 11.3883C37.0826 11.0568 37.4469 10.8602 37.8013 10.9489L39.3655 11.3409C39.7198 11.4298 39.9302 11.7706 39.8353 12.1022Z" fill="#007FFC"></path>
  </symbol>
  <symbol fill="none" xmlns="http://www.w3.org/2000/svg" viewBox="0 0 25 36" id="phone-blue">
    <path d="M21.1925 0.600098C22.6091 0.600098 23.7579 1.67485 23.7579 3.0001V33.0001C23.7579 34.3254 22.6091 35.4001 21.1925 35.4001H3.55512C2.13852 35.4001 0.989685 34.3254 0.989685 33.0001V3.0001C0.989685 1.67485 2.13852 0.600098 3.55512 0.600098H21.1925Z" fill="#D1E7FF"></path>
    <path d="M16.4079 13.479C17.022 13.479 17.5366 13.9118 17.6032 14.4825L18.461 21.8535C18.5388 22.5188 17.9816 23.1 17.2657 23.1H7.48176C6.76585 23.1 6.20867 22.5188 6.28643 21.8535L7.14425 14.4825C7.21079 13.9118 7.72548 13.479 8.33958 13.479H16.4079Z" fill="#B9DCFF"></path>
    <path d="M21.3138 0.602744C23.3769 0.692519 23.2675 3.60012 21.2021 3.60012H12.8549C8.07295 3.60012 4.19649 7.22659 4.19649 11.7001V35.4001H3.55513C2.13828 35.4001 0.989685 34.3256 0.989685 33.0001V3.00012C0.989685 1.67464 2.13828 0.600119 3.55513 0.600119C3.67121 0.600119 21.2196 0.598619 21.3138 0.602744Z" fill="#E8F3FF"></path>
    <path d="M23.7579 30.1501V33.0001C23.7579 34.3254 22.6091 35.4001 21.1925 35.4001H3.55512C2.13852 35.4001 0.989685 34.3254 0.989685 33.0001V30.1501H23.7579Z" fill="#B9DCFF"></path>
    <path d="M4.19647 30.1501V33.009C4.19647 34.9636 0.989685 35.0635 0.989685 33.0001V30.1501H4.19647Z" fill="#D1E7FF"></path>
    <path d="M16.4081 15.729C12.5233 15.729 9.34781 18.4649 8.93782 21.9895C8.8643 22.6214 8.29389 23.1 7.61445 23.1H7.48177C6.76585 23.1 6.20867 22.5188 6.28643 21.8535L7.14425 14.4825C7.21079 13.9118 7.72549 13.479 8.33959 13.479H16.4079C17.0215 13.479 17.5368 13.9113 17.6032 14.4821C17.6809 15.149 17.1226 15.729 16.4081 15.729Z" fill="#D1E7FF"></path>
    <path d="M21.1924 0H3.55506C1.78683 0 0.348267 1.3458 0.348267 3V33C0.348267 34.6542 1.78683 36 3.55506 36H21.1924C22.9606 36 24.3992 34.6542 24.3992 33V3C24.3992 1.3458 22.9606 0 21.1924 0ZM21.1924 34.8H3.55506C2.49417 34.8 1.63098 33.9925 1.63098 33V3C1.63098 2.00745 2.49417 1.2 3.55506 1.2H21.1924C22.2533 1.2 23.1165 2.00745 23.1165 3V29.55H4.75761C4.40341 29.55 4.11625 29.8187 4.11625 30.15C4.11625 30.4814 4.40341 30.75 4.75761 30.75H23.1165V33C23.1165 33.9925 22.2533 34.8 21.1924 34.8ZM13.8168 32.625C13.8168 32.9564 13.5296 33.225 13.1754 33.225H11.572C11.2178 33.225 10.9307 32.9564 10.9307 32.625C10.9307 32.2937 11.2178 32.025 11.572 32.025H13.1754C13.5296 32.025 13.8168 32.2937 13.8168 32.625ZM7.48177 23.7H17.2657C18.3626 23.7 19.2174 22.8079 19.0988 21.7883L18.241 14.4176C18.139 13.5407 17.3508 12.8794 16.408 12.8794H15.8142V11.7686C15.8141 9.99383 14.2708 8.55 12.3737 8.55C10.4767 8.55 8.93333 9.99383 8.93333 11.7686V12.8793H8.33959C7.39663 12.8793 6.60865 13.5406 6.50651 14.4176L5.64877 21.7883C5.53004 22.8084 6.38553 23.7 7.48177 23.7ZM6.92387 21.9182L7.78161 14.5475C7.81272 14.2806 8.0525 14.0793 8.33951 14.0793H8.93325V15.0155C8.93325 15.3469 9.22042 15.6155 9.57461 15.6155C9.9288 15.6155 10.216 15.3469 10.216 15.0155V11.7686C10.216 10.6556 11.1839 9.75 12.3737 9.75C13.5635 9.75 14.5313 10.6555 14.5313 11.7686V12.8794H11.7571C11.403 12.8794 11.1158 13.148 11.1158 13.4794C11.1158 13.8107 11.403 14.0794 11.7571 14.0794H14.5313V15.0155C14.5313 15.3469 14.8185 15.6155 15.1727 15.6155C15.5269 15.6155 15.8141 15.3469 15.8141 15.0155V14.0794H16.4078C16.6948 14.0794 16.9346 14.2807 16.9657 14.5475L17.8234 21.9182C17.8595 22.2284 17.6012 22.5 17.2655 22.5H7.48177C7.14763 22.5 6.88772 22.2296 6.92387 21.9182Z" fill="#007FFC"></path>
  </symbol>
  <symbol fill="none" xmlns="http://www.w3.org/2000/svg" viewBox="0 0 25 36" id="phone-green">
    <path d="M21.1925 0.600098C22.6091 0.600098 23.7579 1.67485 23.7579 3.0001V33.0001C23.7579 34.3254 22.6091 35.4001 21.1925 35.4001H3.55512C2.13852 35.4001 0.989685 34.3254 0.989685 33.0001V3.0001C0.989685 1.67485 2.13852 0.600098 3.55512 0.600098H21.1925Z" fill="#E1F4F5"></path>
    <path d="M16.4079 13.479C17.022 13.479 17.5366 13.9118 17.6032 14.4825L18.461 21.8535C18.5388 22.5188 17.9816 23.1 17.2657 23.1H7.48176C6.76585 23.1 6.20867 22.5188 6.28643 21.8535L7.14425 14.4825C7.21079 13.9118 7.72548 13.479 8.33958 13.479H16.4079Z" fill="#CAEFF2"></path>
    <path d="M21.3138 0.602744C23.3769 0.692519 23.2675 3.60012 21.2021 3.60012H12.8549C8.07295 3.60012 4.19649 7.22659 4.19649 11.7001V35.4001H3.55513C2.13828 35.4001 0.989685 34.3256 0.989685 33.0001V3.00012C0.989685 1.67464 2.13828 0.600119 3.55513 0.600119C3.67121 0.600119 21.2196 0.598619 21.3138 0.602744Z" fill="#F4FEFF"></path>
    <path d="M23.7579 30.1501V33.0001C23.7579 34.3254 22.6091 35.4001 21.1925 35.4001H3.55512C2.13852 35.4001 0.989685 34.3254 0.989685 33.0001V30.1501H23.7579Z" fill="#CAEFF2"></path>
    <path d="M4.19647 30.1501V33.009C4.19647 34.9636 0.989685 35.0635 0.989685 33.0001V30.1501H4.19647Z" fill="#E1F4F5"></path>
    <path d="M16.4081 15.729C12.5233 15.729 9.34781 18.4649 8.93782 21.9895C8.8643 22.6214 8.29389 23.1 7.61445 23.1H7.48177C6.76585 23.1 6.20867 22.5188 6.28643 21.8535L7.14425 14.4825C7.21079 13.9118 7.72549 13.479 8.33959 13.479H16.4079C17.0215 13.479 17.5368 13.9113 17.6032 14.4821C17.6809 15.149 17.1226 15.729 16.4081 15.729Z" fill="#E1F4F5"></path>
    <path d="M21.1924 0H3.55506C1.78683 0 0.348267 1.3458 0.348267 3V33C0.348267 34.6542 1.78683 36 3.55506 36H21.1924C22.9606 36 24.3992 34.6542 24.3992 33V3C24.3992 1.3458 22.9606 0 21.1924 0ZM21.1924 34.8H3.55506C2.49417 34.8 1.63098 33.9925 1.63098 33V3C1.63098 2.00745 2.49417 1.2 3.55506 1.2H21.1924C22.2533 1.2 23.1165 2.00745 23.1165 3V29.55H4.75761C4.40341 29.55 4.11625 29.8187 4.11625 30.15C4.11625 30.4814 4.40341 30.75 4.75761 30.75H23.1165V33C23.1165 33.9925 22.2533 34.8 21.1924 34.8ZM13.8168 32.625C13.8168 32.9564 13.5296 33.225 13.1754 33.225H11.572C11.2178 33.225 10.9307 32.9564 10.9307 32.625C10.9307 32.2937 11.2178 32.025 11.572 32.025H13.1754C13.5296 32.025 13.8168 32.2937 13.8168 32.625ZM7.48177 23.7H17.2657C18.3626 23.7 19.2174 22.8079 19.0988 21.7883L18.241 14.4176C18.139 13.5407 17.3508 12.8794 16.408 12.8794H15.8142V11.7686C15.8141 9.99383 14.2708 8.55 12.3737 8.55C10.4767 8.55 8.93333 9.99383 8.93333 11.7686V12.8793H8.33959C7.39663 12.8793 6.60865 13.5406 6.50651 14.4176L5.64877 21.7883C5.53004 22.8084 6.38553 23.7 7.48177 23.7ZM6.92387 21.9182L7.78161 14.5475C7.81272 14.2806 8.0525 14.0793 8.33951 14.0793H8.93325V15.0155C8.93325 15.3469 9.22042 15.6155 9.57461 15.6155C9.9288 15.6155 10.216 15.3469 10.216 15.0155V11.7686C10.216 10.6556 11.1839 9.75 12.3737 9.75C13.5635 9.75 14.5313 10.6555 14.5313 11.7686V12.8794H11.7571C11.403 12.8794 11.1158 13.148 11.1158 13.4794C11.1158 13.8107 11.403 14.0794 11.7571 14.0794H14.5313V15.0155C14.5313 15.3469 14.8185 15.6155 15.1727 15.6155C15.5269 15.6155 15.8141 15.3469 15.8141 15.0155V14.0794H16.4078C16.6948 14.0794 16.9346 14.2807 16.9657 14.5475L17.8234 21.9182C17.8595 22.2284 17.6012 22.5 17.2655 22.5H7.48177C7.14763 22.5 6.88772 22.2296 6.92387 21.9182Z" fill="#52C29D"></path>
  </symbol>
  <symbol xmlns="http://www.w3.org/2000/svg" viewBox="0 0 20 17" id="twitter-icon">
    <path d="M17.9441 4.0482C17.9568 4.22586 17.9568 4.40355 17.9568 4.58121C17.9568 9.99996 13.8325 16.2436 6.29441 16.2436C3.97207 16.2436 1.81473 15.571 0 14.4036C0.329961 14.4416 0.647187 14.4543 0.989844 14.4543C2.90605 14.4543 4.67004 13.8071 6.07867 12.703C4.27664 12.665 2.76648 11.4848 2.24617 9.86039C2.5 9.89844 2.75379 9.92383 3.02031 9.92383C3.38832 9.92383 3.75637 9.87305 4.09898 9.78426C2.22082 9.40351 0.812148 7.75379 0.812148 5.76141V5.71066C1.35781 6.01523 1.99238 6.20559 2.66492 6.23094C1.56086 5.49488 0.837539 4.23855 0.837539 2.81723C0.837539 2.05582 1.04055 1.35785 1.3959 0.748711C3.41367 3.23602 6.44668 4.86035 9.84766 5.03805C9.78422 4.73348 9.74613 4.41625 9.74613 4.09898C9.74613 1.84008 11.5736 0 13.8451 0C15.0253 0 16.0913 0.494922 16.84 1.29441C17.7664 1.11676 18.6547 0.774102 19.4416 0.30457C19.137 1.25637 18.4898 2.05586 17.6395 2.56344C18.4644 2.47465 19.2639 2.24617 19.9999 1.92895C19.4416 2.74109 18.7436 3.46441 17.9441 4.0482Z"></path>
  </symbol>
  <symbol xmlns="http://www.w3.org/2000/svg" viewBox="0 0 20 20" id="dribbble-icon">
    <path d="M9.6875 0C4.34578 0 0 4.34578 0 9.6875C0 15.0292 4.34578 19.375 9.6875 19.375C15.0292 19.375 19.375 15.0292 19.375 9.6875C19.375 4.34578 15.0292 0 9.6875 0ZM16.0926 4.46742C17.245 5.87547 17.9429 7.66887 17.9611 9.62191C17.6883 9.56422 14.9526 9.00934 12.1993 9.35559C11.9746 8.80711 11.7626 8.32461 11.4721 7.73004C14.5315 6.48094 15.9181 4.7034 16.0926 4.46742ZM15.1727 3.51055C15.0239 3.72254 13.7783 5.39672 10.8359 6.49957C9.48 4.00832 7.97715 1.96176 7.74844 1.65551C10.3725 1.02297 13.1377 1.70512 15.1727 3.51055ZM6.16957 2.21172C6.38773 2.5109 7.86637 4.56 9.23742 6.99723C5.36684 8.02508 1.95773 8.01027 1.58766 8.00539C2.12422 5.4377 3.85461 3.30363 6.16957 2.21172ZM1.41289 9.70012C1.41289 9.61551 1.41457 9.53129 1.41711 9.44727C1.77914 9.45469 5.78898 9.50637 9.92125 8.26969C10.1581 8.73328 10.3844 9.20387 10.5921 9.67395C7.59996 10.5167 4.88141 12.9367 3.54012 15.2328C2.21852 13.7658 1.41289 11.8254 1.41289 9.70012ZM4.60848 16.228C5.47281 14.4611 7.81855 12.1802 11.1545 11.0422C12.3162 14.0611 12.7967 16.5911 12.9197 17.3171C10.2591 18.4504 7.05977 18.1395 4.60848 16.228ZM14.3108 16.5596C14.226 16.0562 13.7856 13.6339 12.7033 10.6598C15.2963 10.2448 17.5744 10.9242 17.8575 11.0136C17.4887 13.3159 16.1671 15.3043 14.3108 16.5596Z"></path>
  </symbol>
  <symbol xmlns="http://www.w3.org/2000/svg" viewBox="0 0 20 20" id="github-icon">
    <path d="M6.68952 15.7016C6.68952 15.7823 6.59677 15.8468 6.47984 15.8468C6.34677 15.8589 6.25403 15.7944 6.25403 15.7016C6.25403 15.621 6.34677 15.5565 6.46371 15.5565C6.58468 15.5444 6.68952 15.6089 6.68952 15.7016ZM5.43548 15.5202C5.40726 15.6008 5.4879 15.6935 5.60887 15.7177C5.71371 15.7581 5.83468 15.7177 5.85887 15.6371C5.88306 15.5565 5.80645 15.4637 5.68548 15.4274C5.58065 15.3992 5.46371 15.4395 5.43548 15.5202ZM7.21774 15.4516C7.10081 15.4798 7.02016 15.5565 7.03226 15.6492C7.04435 15.7298 7.14919 15.7823 7.27016 15.754C7.3871 15.7258 7.46774 15.6492 7.45564 15.5685C7.44355 15.4919 7.33468 15.4395 7.21774 15.4516ZM9.87097 0C4.27823 0 0 4.24597 0 9.83871C0 14.3105 2.81452 18.1371 6.83468 19.4839C7.35081 19.5766 7.53226 19.2581 7.53226 18.996C7.53226 18.746 7.52016 17.3669 7.52016 16.5202C7.52016 16.5202 4.69758 17.125 4.10484 15.3185C4.10484 15.3185 3.64516 14.1452 2.98387 13.8427C2.98387 13.8427 2.06048 13.2097 3.04839 13.2218C3.04839 13.2218 4.05242 13.3024 4.60484 14.2621C5.4879 15.8185 6.96774 15.371 7.54435 15.1048C7.6371 14.4597 7.89919 14.0121 8.18952 13.746C5.93548 13.496 3.66129 13.1694 3.66129 9.29032C3.66129 8.18145 3.96774 7.625 4.6129 6.91532C4.50806 6.65323 4.16532 5.57258 4.71774 4.17742C5.56048 3.91532 7.5 5.26613 7.5 5.26613C8.30645 5.04032 9.17339 4.92339 10.0323 4.92339C10.8911 4.92339 11.7581 5.04032 12.5645 5.26613C12.5645 5.26613 14.504 3.91129 15.3468 4.17742C15.8992 5.57661 15.5565 6.65323 15.4516 6.91532C16.0968 7.62903 16.4919 8.18548 16.4919 9.29032C16.4919 13.1815 14.1169 13.4919 11.8629 13.746C12.2339 14.0645 12.5484 14.6694 12.5484 15.6169C12.5484 16.9758 12.5363 18.6573 12.5363 18.9879C12.5363 19.25 12.7218 19.5685 13.2339 19.4758C17.2661 18.1371 20 14.3105 20 9.83871C20 4.24597 15.4637 0 9.87097 0ZM3.91935 13.9073C3.86694 13.9476 3.87903 14.0403 3.94758 14.1169C4.0121 14.1815 4.10484 14.2097 4.15726 14.1573C4.20968 14.1169 4.19758 14.0242 4.12903 13.9476C4.06452 13.8831 3.97177 13.8548 3.91935 13.9073ZM3.48387 13.5806C3.45565 13.6331 3.49597 13.6976 3.57661 13.7379C3.64113 13.7782 3.72177 13.7661 3.75 13.7097C3.77823 13.6573 3.7379 13.5927 3.65726 13.5524C3.57661 13.5282 3.5121 13.5403 3.48387 13.5806ZM4.79032 15.0161C4.72581 15.0685 4.75 15.1895 4.84274 15.2661C4.93548 15.3589 5.05242 15.371 5.10484 15.3065C5.15726 15.254 5.13306 15.1331 5.05242 15.0565C4.96371 14.9637 4.84274 14.9516 4.79032 15.0161ZM4.33065 14.4234C4.26613 14.4637 4.26613 14.5685 4.33065 14.6613C4.39516 14.754 4.50403 14.7944 4.55645 14.754C4.62097 14.7016 4.62097 14.5968 4.55645 14.504C4.5 14.4113 4.39516 14.371 4.33065 14.4234Z"></path>
  </symbol>
  <symbol xmlns="http://www.w3.org/2000/svg" viewBox="0 0 10 19" id="facebook-icon">
    <path d="M9.34469 10.5025L9.86325 7.12348H6.62096V4.93071C6.62096 4.00627 7.07388 3.10517 8.526 3.10517H10V0.228284C10 0.228284 8.66239 0 7.38349 0C4.71337 0 2.96806 1.61841 2.96806 4.54817V7.12348H0V10.5025H2.96806V18.6711H6.62096V10.5025H9.34469Z"></path>
  </symbol>
  <symbol xmlns="http://www.w3.org/2000/svg" viewBox="0 0 21 20" id="instagram-icon">
    <path d="M10.0078 4.87388C7.16852 4.87388 4.87834 7.16406 4.87834 10.0033C4.87834 12.8426 7.16852 15.1328 10.0078 15.1328C12.8471 15.1328 15.1373 12.8426 15.1373 10.0033C15.1373 7.16406 12.8471 4.87388 10.0078 4.87388ZM10.0078 13.3382C8.17298 13.3382 6.67298 11.8426 6.67298 10.0033C6.67298 8.16406 8.16851 6.66853 10.0078 6.66853C11.8471 6.66853 13.3426 8.16406 13.3426 10.0033C13.3426 11.8426 11.8426 13.3382 10.0078 13.3382ZM16.5435 4.66406C16.5435 5.32924 16.0078 5.86049 15.3471 5.86049C14.6819 5.86049 14.1506 5.32478 14.1506 4.66406C14.1506 4.00335 14.6864 3.46763 15.3471 3.46763C16.0078 3.46763 16.5435 4.00335 16.5435 4.66406ZM19.9408 5.87835C19.8649 4.27567 19.4989 2.85603 18.3247 1.68638C17.1551 0.516741 15.7355 0.15067 14.1328 0.0703125C12.481 -0.0234375 7.53012 -0.0234375 5.87834 0.0703125C4.28013 0.146205 2.86049 0.512277 1.68638 1.68192C0.512276 2.85156 0.150669 4.27121 0.0703124 5.87388C-0.0234375 7.52567 -0.0234375 12.4766 0.0703124 14.1283C0.146205 15.731 0.512276 17.1507 1.68638 18.3203C2.86049 19.49 4.27566 19.856 5.87834 19.9364C7.53012 20.0301 12.481 20.0301 14.1328 19.9364C15.7355 19.8605 17.1551 19.4944 18.3247 18.3203C19.4944 17.1507 19.8605 15.731 19.9408 14.1283C20.0346 12.4766 20.0346 7.53013 19.9408 5.87835ZM17.8069 15.9007C17.4587 16.7757 16.7846 17.4498 15.9051 17.8025C14.5881 18.3248 11.4632 18.2042 10.0078 18.2042C8.55244 18.2042 5.42298 18.3203 4.11048 17.8025C3.23549 17.4542 2.56138 16.7801 2.2087 15.9007C1.68638 14.5837 1.80692 11.4587 1.80692 10.0033C1.80692 8.54799 1.69085 5.41853 2.2087 4.10603C2.55692 3.23103 3.23102 2.55692 4.11048 2.20424C5.42745 1.68192 8.55244 1.80246 10.0078 1.80246C11.4632 1.80246 14.5926 1.68638 15.9051 2.20424C16.7801 2.55246 17.4542 3.22656 17.8069 4.10603C18.3292 5.42299 18.2087 8.54799 18.2087 10.0033C18.2087 11.4587 18.3292 14.5882 17.8069 15.9007Z"/>
  </symbol>
</svg>